<svg xmlns="http://www.w3.org/2000/svg" width="350" height="141.187" viewBox="0 0 350 141.187"><g transform="translate(-525 -4674.25)"><path d="M553.54,4760.565a1.757,1.757,0,0,1,1.988-1.987h7.947q7.285,0,7.286-7.947v-9.494a1.562,1.562,0,0,0-1.766-1.766h-14.13a1.987,1.987,0,0,1,0-3.974h34.529a1.987,1.987,0,0,1,0,3.974H581.8a1.561,1.561,0,0,0-1.766,1.766v9.494q0,11.921-16.558,11.921h-7.947A1.757,1.757,0,0,1,553.54,4760.565Zm.663-32.454a1.756,1.756,0,0,1,1.987-1.986h31.879a1.987,1.987,0,1,1,0,3.974H556.19A1.756,1.756,0,0,1,554.2,4728.111Z" fill="#fff"/><path d="M599.7,4728.111a1.756,1.756,0,0,1,1.987-1.986h31.791a1.987,1.987,0,0,1,0,3.974H601.686A1.756,1.756,0,0,1,599.7,4728.111Zm0,32.454a1.756,1.756,0,0,1,1.987-1.987h16.558q7.949,0,7.948-7.285v-8.831a1.561,1.561,0,0,0-1.766-1.766h-22.74a1.987,1.987,0,1,1,0-3.974h31.129a2.341,2.341,0,0,1,2.649,2.649v11.922q0,11.259-17.22,11.259H601.686A1.756,1.756,0,0,1,599.7,4760.565Z" fill="#fff"/><path d="M643.606,4728.111a1.756,1.756,0,0,1,1.987-1.986h28.48a2.342,2.342,0,0,1,2.649,2.65v21.856a13.491,13.491,0,0,1-.53,3.885l5.078,5.475a1.973,1.973,0,1,1-3,2.561l-4.106-4.415q-3.932,4.414-14,4.415H645.593a1.987,1.987,0,1,1,0-3.974h14.571q7.285,0,7.285-7.947v-18.766a1.561,1.561,0,0,0-1.766-1.766h-20.09A1.757,1.757,0,0,1,643.606,4728.111Z" fill="#fff"/><path d="M692.856,4762.6a2.342,2.342,0,0,1-2.649-2.649v-31.172a2.342,2.342,0,0,1,2.649-2.65h30.511a2.342,2.342,0,0,1,2.649,2.65v31.172a2.342,2.342,0,0,1-2.649,2.649Zm23.887-30.687a1.561,1.561,0,0,0-1.766-1.766H701.245a1.561,1.561,0,0,0-1.766,1.766v24.9a1.56,1.56,0,0,0,1.766,1.766h13.732a1.561,1.561,0,0,0,1.766-1.766Z" fill="#fff"/><path d="M734.334,4760.565a1.756,1.756,0,0,1,1.987-1.987h18.456q7.285,0,7.286-7.947v-14.792a1.561,1.561,0,0,0-1.766-1.766H745.284a1.561,1.561,0,0,0-1.766,1.766v7.506a2.341,2.341,0,0,1-2.649,2.649H736.9a2.342,2.342,0,0,1-2.65-2.649v-10.6a2.342,2.342,0,0,1,2.65-2.649h9.493a1.562,1.562,0,0,0,1.766-1.767v-.883a2.342,2.342,0,0,1,2.649-2.649h3.974a2.342,2.342,0,0,1,2.65,2.649v.883a1.561,1.561,0,0,0,1.766,1.767h9.493a2.341,2.341,0,0,1,2.649,2.649v17.883q0,11.921-16.558,11.921H736.321A1.756,1.756,0,0,1,734.334,4760.565Z" fill="#fff"/><path d="M781.331,4758.578h15.233q7.285,0,7.285-7.947v-22.52a2.342,2.342,0,0,1,2.65-2.649h3.973a2.342,2.342,0,0,1,2.65,2.649v22.52q0,11.921-16.558,11.921H781.331a1.987,1.987,0,1,1,0-3.974Zm-1.325-30.467a2.342,2.342,0,0,1,2.649-2.649h3.974a2.341,2.341,0,0,1,2.649,2.649v18.545a2.342,2.342,0,0,1-2.649,2.649h-3.974a2.342,2.342,0,0,1-2.649-2.649Z" fill="#fff"/><path d="M819.81,4734.338a1.542,1.542,0,0,1,1.722-1.766H844.05a2.05,2.05,0,0,1,2.3,2.34v22.65a1.366,1.366,0,0,0,1.545,1.546h1.9q1.766,0,1.766,1.678a1.561,1.561,0,0,1-1.766,1.766H820.957a1.542,1.542,0,0,1-1.722-1.766,1.5,1.5,0,0,1,1.722-1.678H836.72a1.367,1.367,0,0,0,1.547-1.546V4737.6a1.367,1.367,0,0,0-1.547-1.545H821.532A1.523,1.523,0,0,1,819.81,4734.338Z" fill="#fff"/><path d="M773.988,4678.559h6.666a5.24,5.24,0,0,1,3.479,1.125,4.544,4.544,0,0,1,1.7,3.643,4.753,4.753,0,0,1-3.3,4.733l3.958,7.579h-3.08l-3.526-7.3h-3.3v7.3h-2.589Zm2.589,7.485h3.913a2.829,2.829,0,0,0,2.179-.843,2.639,2.639,0,0,0,.714-1.874,2.277,2.277,0,0,0-.854-1.934,2.978,2.978,0,0,0-1.9-.526h-4.053Z" fill="#fff"/><path d="M790.2,4689.547a10.585,10.585,0,0,1,.317-2.952,4.27,4.27,0,0,1,1.007-1.7,4.618,4.618,0,0,1,1.406-1.089,5.185,5.185,0,0,1,2.285-.48,5.3,5.3,0,0,1,2.331.48,4.365,4.365,0,0,1,1.358,1.089,3.835,3.835,0,0,1,1.032,1.7,11.42,11.42,0,0,1,.292,2.952,11.146,11.146,0,0,1-.292,2.929,4.173,4.173,0,0,1-1.032,1.745,3.8,3.8,0,0,1-.573.527,2.661,2.661,0,0,1-.785.5,4.864,4.864,0,0,1-2.331.527,4.76,4.76,0,0,1-2.285-.527,4.563,4.563,0,0,1-2.413-2.776A10.331,10.331,0,0,1,790.2,4689.547Zm7.58.023a10.8,10.8,0,0,0-.118-1.9,2.221,2.221,0,0,0-.48-1.007,1.777,1.777,0,0,0-.8-.645,2.64,2.64,0,0,0-1.171-.246,2.686,2.686,0,0,0-1.149.246,2.164,2.164,0,0,0-.82.645,2.858,2.858,0,0,0-.457,1.007,9.036,9.036,0,0,0-.14,1.874,8.783,8.783,0,0,0,.14,1.851,3.12,3.12,0,0,0,.457,1.055,3,3,0,0,0,.82.62,2.583,2.583,0,0,0,1.149.258,2.539,2.539,0,0,0,1.171-.258,2.3,2.3,0,0,0,.8-.62,2.41,2.41,0,0,0,.48-1.055A10.147,10.147,0,0,0,797.778,4689.57Z" fill="#fff"/><path d="M804.593,4689.547a10.585,10.585,0,0,1,.317-2.952,4.27,4.27,0,0,1,1.007-1.7,4.618,4.618,0,0,1,1.406-1.089,5.184,5.184,0,0,1,2.285-.48,5.3,5.3,0,0,1,2.331.48,4.365,4.365,0,0,1,1.358,1.089,3.835,3.835,0,0,1,1.032,1.7,11.42,11.42,0,0,1,.292,2.952,11.146,11.146,0,0,1-.292,2.929,4.173,4.173,0,0,1-1.032,1.745,3.8,3.8,0,0,1-.573.527,2.662,2.662,0,0,1-.785.5,4.864,4.864,0,0,1-2.331.527,4.759,4.759,0,0,1-2.285-.527,4.563,4.563,0,0,1-2.413-2.776A10.332,10.332,0,0,1,804.593,4689.547Zm7.58.023a10.936,10.936,0,0,0-.117-1.9,2.233,2.233,0,0,0-.481-1.007,1.778,1.778,0,0,0-.8-.645,2.64,2.64,0,0,0-1.171-.246,2.678,2.678,0,0,0-1.148.246,2.159,2.159,0,0,0-.821.645,2.858,2.858,0,0,0-.457,1.007,9.036,9.036,0,0,0-.14,1.874,8.783,8.783,0,0,0,.14,1.851,3.12,3.12,0,0,0,.457,1.055,2.985,2.985,0,0,0,.821.62,2.576,2.576,0,0,0,1.148.258,2.539,2.539,0,0,0,1.171-.258,2.3,2.3,0,0,0,.8-.62,2.423,2.423,0,0,0,.481-1.055A10.276,10.276,0,0,0,812.173,4689.57Z" fill="#fff"/><path d="M819.972,4685.342h-1.229v-1.863h1.229v-1.6a3.177,3.177,0,0,1,.962-2.554,3.611,3.611,0,0,1,2.354-.761h1.582v2.308h-1.4q-1.1-.037-1.054,1.007v1.6h2.449v1.863h-2.449v10.3h-2.449Z" fill="#fff"/><path d="M839.917,4680.867h-4.674v-2.308h11.948v2.308h-4.674v14.772h-2.6Z" fill="#fff"/><path d="M848.2,4689.547a10.585,10.585,0,0,1,.317-2.952,4.27,4.27,0,0,1,1.007-1.7,4.606,4.606,0,0,1,1.406-1.089,5.184,5.184,0,0,1,2.285-.48,5.3,5.3,0,0,1,2.331.48,4.365,4.365,0,0,1,1.358,1.089,3.835,3.835,0,0,1,1.032,1.7,11.42,11.42,0,0,1,.292,2.952,11.146,11.146,0,0,1-.292,2.929,4.173,4.173,0,0,1-1.032,1.745,3.8,3.8,0,0,1-.573.527,2.662,2.662,0,0,1-.785.5,4.864,4.864,0,0,1-2.331.527,4.759,4.759,0,0,1-2.285-.527,4.563,4.563,0,0,1-2.413-2.776A10.332,10.332,0,0,1,848.2,4689.547Zm7.58.023a10.807,10.807,0,0,0-.118-1.9,2.222,2.222,0,0,0-.48-1.007,1.778,1.778,0,0,0-.8-.645,2.64,2.64,0,0,0-1.171-.246,2.686,2.686,0,0,0-1.149.246,2.164,2.164,0,0,0-.82.645,2.858,2.858,0,0,0-.457,1.007,9.036,9.036,0,0,0-.14,1.874,8.783,8.783,0,0,0,.14,1.851,3.12,3.12,0,0,0,.457,1.055,3,3,0,0,0,.82.62,2.583,2.583,0,0,0,1.149.258,2.539,2.539,0,0,0,1.171-.258,2.3,2.3,0,0,0,.8-.62,2.41,2.41,0,0,0,.48-1.055A10.154,10.154,0,0,0,855.777,4689.57Z" fill="#fff"/><path d="M863.19,4683.479h2.448v1.265a4.211,4.211,0,0,1,3.14-1.417,3.785,3.785,0,0,1,3.269,1.592,3.209,3.209,0,0,1,.691,1.512,19.185,19.185,0,0,1,.176,3.139,18.917,18.917,0,0,1-.176,3.093,3.369,3.369,0,0,1-.691,1.535,3.66,3.66,0,0,1-1.324,1.124,4.235,4.235,0,0,1-1.945.457,3.4,3.4,0,0,1-1.675-.409,5.346,5.346,0,0,1-1.465-1.032v6.221H863.19Zm4.85,9.852a2.488,2.488,0,0,0,1.371-.328,1.875,1.875,0,0,0,.713-.867,4.459,4.459,0,0,0,.317-1.218q.024-.657.024-1.348c0-.483-.008-.956-.024-1.417a4.168,4.168,0,0,0-.317-1.218,1.729,1.729,0,0,0-.713-.867,2.726,2.726,0,0,0-1.371-.293,2.218,2.218,0,0,0-1.3.339A2,2,0,0,0,866,4687a4.483,4.483,0,0,0-.294,1.2,13.26,13.26,0,0,0-.07,1.37,11.827,11.827,0,0,0,.07,1.289,4.521,4.521,0,0,0,.294,1.23,1.988,1.988,0,0,0,.738.891A2.159,2.159,0,0,0,868.04,4693.331Z" fill="#fff"/><path d="M584.094,4704.222v-21.38H694.318v14.236h8.592V4674.25H575.5v38.563H866.408v49.351H875v-57.942Z" fill="#fff"/><path d="M815.906,4785.465v21.379H705.682v-14.236H697.09v22.828H824.5v-38.563H533.592v-49.351H525v57.942Z" fill="#fff"/><path d="M533.123,4806.141q3.327-.047,3.373-2.378.024-1.908-2.225-2.3-1.032-.142-2.261-.317a5.577,5.577,0,0,1-3.35-1.629,4.525,4.525,0,0,1-1.184-3.162,4.676,4.676,0,0,1,1.488-3.609,5.809,5.809,0,0,1,4.089-1.382,9.592,9.592,0,0,1,5.54,1.769l-1.44,2.132a7.829,7.829,0,0,0-4.229-1.312,3.229,3.229,0,0,0-1.992.6,2.216,2.216,0,0,0-.855,1.85,1.88,1.88,0,0,0,.574,1.335,3.28,3.28,0,0,0,1.839.844q.7.119,1.921.27a5.323,5.323,0,0,1,3.55,1.722,4.846,4.846,0,0,1,1.136,3.186q-.129,4.9-6,4.967a9.687,9.687,0,0,1-6.525-2.342l1.7-1.946A7.491,7.491,0,0,0,533.123,4806.141Z" fill="#fff"/><path d="M550.387,4807.511h-.047a2.019,2.019,0,0,1-1.054.914,4.992,4.992,0,0,1-1.945.305,4.438,4.438,0,0,1-3.139-1.077,3.371,3.371,0,0,1-1.16-2.636,3.444,3.444,0,0,1,1.008-2.542A4.015,4.015,0,0,1,547,4801.42h3.385v-1.276q.024-1.6-2.495-1.559a4.441,4.441,0,0,0-1.441.188,1.757,1.757,0,0,0-.866.749l-1.922-1.464a4.743,4.743,0,0,1,4.112-1.781,6.521,6.521,0,0,1,3.667.868,3.537,3.537,0,0,1,1.393,3.139v8.306h-2.448Zm0-4.076h-2.928q-2.133.048-2.109,1.464a1.3,1.3,0,0,0,.551,1.055,2.558,2.558,0,0,0,1.745.48,4.276,4.276,0,0,0,2.168-.363q.573-.387.573-1.758Z" fill="#fff"/><path d="M558.4,4796.43h2.448v7.24a2.591,2.591,0,0,0,.691,1.92,2.328,2.328,0,0,0,1.734.692,2.288,2.288,0,0,0,1.722-.692,2.618,2.618,0,0,0,.68-1.92v-7.24h2.448v12.16h-2.448v-1.3h-.047a3.915,3.915,0,0,1-3.151,1.441,4.111,4.111,0,0,1-2.73-1.1,3.8,3.8,0,0,1-1.347-3.116Z" fill="#fff"/><path d="M573.683,4796.43h2.448v1.288h.048a3.926,3.926,0,0,1,3.163-1.441,4.177,4.177,0,0,1,2.764,1.066,4.128,4.128,0,0,1,1.3,3.163v8.084h-2.448v-7.24a2.609,2.609,0,0,0-.679-1.944,2.307,2.307,0,0,0-1.723-.68,2.344,2.344,0,0,0-1.733.68,2.579,2.579,0,0,0-.692,1.944v7.24h-2.448Z" fill="#fff"/><path d="M595.352,4807.511h-.046a2.025,2.025,0,0,1-1.055.914,4.99,4.99,0,0,1-1.944.305,4.436,4.436,0,0,1-3.139-1.077,3.367,3.367,0,0,1-1.16-2.636,3.443,3.443,0,0,1,1.007-2.542,4.017,4.017,0,0,1,2.952-1.055h3.385v-1.276q.024-1.6-2.494-1.559a4.443,4.443,0,0,0-1.442.188,1.762,1.762,0,0,0-.866.749l-1.922-1.464a4.744,4.744,0,0,1,4.112-1.781,6.521,6.521,0,0,1,3.667.868,3.538,3.538,0,0,1,1.394,3.139v8.306h-2.449Zm0-4.076h-2.928q-2.133.048-2.109,1.464a1.3,1.3,0,0,0,.551,1.055,2.558,2.558,0,0,0,1.745.48,4.276,4.276,0,0,0,2.168-.363q.574-.387.573-1.758Z" fill="#fff"/></g></svg>