<svg xmlns="http://www.w3.org/2000/svg" width="508.967" height="93.368" viewBox="0 0 508.967 93.368"><g transform="translate(-445.712 -214.272)"><path d="M506.857,243.428c-.215,0-.971,0-1.044.756-.071.936-.144,1.944-1.727,1.944-1.188,0-1.26-.72-1.26-1.332,0-.144.216-7.343.216-8.711,0-3.923,0-12.49-.288-16.126-.036-.324-.216-1.835-.216-2.159,0-.18.036-.288.216-.288.144,0,.324.072,1.692.756a3.316,3.316,0,0,0,1.8.5H517.26c.756,0,1.044,0,1.3-.36.54-.756.684-.936,1.044-.936.5,0,3.131,1.691,3.131,2.232,0,.251-.18.4-.792.935-.467.36-.647.612-.647,2.34,0,3.852.036,4.5.072,7.667.035,2.052.287,11.159.287,13.03a1.81,1.81,0,0,1-1.8,1.98c-.108,0-1.044,0-1.152-1.368-.036-.612-.036-.864-.756-.864Zm10.8-13.066c1.044,0,1.044-.684,1.044-1.152,0-.432-.108-8.819-.18-9a.887.887,0,0,0-.9-.468H506.5a.8.8,0,0,0-.829.54c-.071.288-.071,8.1-.071,8.747,0,.684.036,1.332,1.007,1.332Zm-.036,12.1c.324,0,.972,0,1.044-.756.036-.216.036-8.207.036-9.035,0-.756-.072-1.368-1.044-1.368H506.642c-.936,0-1.044.54-1.044,1.26,0,1.188.108,6.983.108,8.279,0,1.152.107,1.62,1.08,1.62Z" fill="#fff"/><path d="M552.289,221.867c1.044,0,1.044-.648,1.044-1.656,0-.36.036-1.835.036-2.159,0-.54-.144-2.952-.144-3.42,0-.216,0-.36.324-.36.144,0,3.167.684,3.167,1.368,0,.216-.719.936-.756,1.152-.035.144-.107,3.671-.107,4.031a.919.919,0,0,0,1.043,1.044h1.477c.575,0,1.115,0,3.059-4.607.108-.288.5-1.584.576-1.836.072-.216.18-.36.4-.36.144,0,3.384,1.944,3.384,2.448,0,.324-.144.36-1.369.72-1.115.324-3.671,3.131-3.671,3.419,0,.216.288.216.432.216h4.32a2.4,2.4,0,0,0,.971-.18,9.7,9.7,0,0,1,1.044-.54c.5,0,3.024,1.836,3.024,2.988a.577.577,0,0,1-.648.612c-.252,0-1.188-.4-1.4-.4a5.006,5.006,0,0,0-2.484,1.4,5.672,5.672,0,0,1-.719.576c-.109,0-.109-.144-.109-.18,0-.216.865-2.664.865-3.024,0-.324-.217-.324-.5-.324H543c-.5,0-.5.072-.54.684-.108,1.836-1.367,3.492-2.195,3.492a1.482,1.482,0,0,1-1.26-1.548,2.652,2.652,0,0,1,.612-1.548,6.955,6.955,0,0,0,1.007-3.456c0-.719,0-.792.217-.792.179,0,.252.18,1.079,1.584.288.54.432.648.9.648ZM563.016,236.3a1.547,1.547,0,0,0,.755-.144c.252-.108,1.081-1.079,1.333-1.079.359,0,2.591,1.223,2.591,1.979,0,.252-.108.324-.756.648-.216.108-.251.432-.251.612,0,4.9,0,5.435-.217,5.9a4.468,4.468,0,0,1-2.987,2.412c-.4,0-.5-.108-1.26-1.224a3.815,3.815,0,0,0-1.872-1.3c-.144-.072-.432-.216-.432-.288,0-.144.18-.144.288-.144a15.41,15.41,0,0,0,2.736-.216c1.223-.215,1.223-.5,1.223-3.383,0-2.556,0-2.844-1.079-2.844h-6.047c-1.081,0-1.081.576-1.081,1.224,0,1.08.037,5.9.037,6.911,0,1.044-.433,2.268-1.8,2.268-1.008,0-1.008-.792-1.008-1.116,0-.036.288-6.875.288-8.171,0-.576-.036-1.116-1.116-1.116h-5.615c-1.116,0-1.152.18-1.152,4.032,0,.468.108,2.555.108,2.987a2.215,2.215,0,0,1-2.124,2.412c-.468,0-.756-.252-.756-1.26,0-1.332.216-7.163.216-8.351,0-.216-.144-1.3-.144-1.512,0-.252.108-.323.288-.323.108,0,1.332.5,1.98.791a2.427,2.427,0,0,0,1.188.288h6.083c1.08,0,1.08-.648,1.08-1.3,0-2.987-.5-2.987-1.188-2.987h-2.772c-.431,0-.791,0-1.008.468-.287.54-.5.936-1.8.936-1.044,0-1.044-.684-1.044-.972,0-.684.108-3.708.108-4.356a13.35,13.35,0,0,0-.144-2.123c-.036-.288-.072-.5-.072-.576a.286.286,0,0,1,.288-.324,15.505,15.505,0,0,1,2.015.792,3.766,3.766,0,0,0,1.548.216h10.907a1.4,1.4,0,0,0,1.26-.54c.432-.684.5-.756.9-.756.432,0,2.088.9,2.088,1.728,0,.288-.144.468-.577.971-.143.18-.143.54-.143,1.188,0,.432.036,2.376.036,2.772a1.806,1.806,0,0,1-1.836,1.692c-.5,0-.576-.144-.792-.756-.144-.36-.54-.36-.792-.36h-4.751c-.108,0-.324,0-.324.144,0,.108.036.108.468.324.756.36,1.044.5,1.044.684,0,.216-.792.9-.9,1.08a1.534,1.534,0,0,0-.108.612c0,.863,0,1.439,1.116,1.439Zm-14.974-14.938c-.756,0-.9-.324-2.268-3.1a17.539,17.539,0,0,0-1.26-2.34c-.036-.072-.468-.576-.468-.612,0-.108.144-.144.216-.144.648,0,2.52,1.224,3.1,1.62a4.526,4.526,0,0,1,1.943,2.88C549.3,220.391,548.941,221.363,548.042,221.363Zm1.583,5.688c-1.115,0-1.115.36-1.115,2.339,0,1.188.143,1.692,1.223,1.692h10.583a.959.959,0,0,0,1.008-.5,15.579,15.579,0,0,0,.108-2.556c0-.971-.756-.971-1.08-.971Z" fill="#fff"/><path d="M599.485,220.931c0,.108.072.252.072.4a27.6,27.6,0,0,1,.36,3.888c0,2.411-.54,5.759-3.708,10.546-2.879,4.392-4.715,5.256-6.155,5.256-2.376,0-4.5-3.708-4.5-8.1a12.682,12.682,0,0,1,3.995-9.179,14.9,14.9,0,0,1,11.483-4.679,11.741,11.741,0,0,1,5.795,1.151,11.284,11.284,0,0,1,6.263,10.475,13.422,13.422,0,0,1-9.07,12.67,22.126,22.126,0,0,1-5.976,1.332c-.144,0-.36-.036-.36-.252,0-.108.072-.144.972-.5,3.743-1.475,11.554-4.571,11.554-13.534,0-1.4-.144-9.971-9.97-9.971C599.521,220.427,599.485,220.715,599.485,220.931Zm-11.7,11.051c0,2.34.936,5.543,3.132,5.543,1.044,0,1.908-.432,4.392-4.175a20.6,20.6,0,0,0,3.527-10.475c0-2.16-.144-2.34-.612-2.34C594.806,220.535,587.786,225.179,587.786,231.982Z" fill="#fff"/><path d="M636.386,228.058c.539,0,.683-.036.9-.36.323-.432.5-.647.827-.647.18,0,2.34,1.007,2.34,1.727,0,.324-.18.468-.648.72-.324.18-.432.288-.54.864a30.026,30.026,0,0,1-2.771,8.567,8.147,8.147,0,0,0-.612,1.224c0,.468.756,1.044,1.043,1.26,2.484,1.836,7.7,2.087,11.159,2.087a51.9,51.9,0,0,0,9.431-.791c.5-.108,2.88-.756,3.239-.756.037,0,.108,0,.108.072s-.108.144-.36.324a3.8,3.8,0,0,0-1.547,1.439,3.31,3.31,0,0,0-.54,2.34c0,.216-.648.18-.972.216-.288,0-.828.072-1.368.108-.648.036-1.224.072-2.628.072-11.266,0-15.19-1.152-17.53-3.563-.827-.828-.9-.936-1.151-.936-.18,0-.216.036-.792.72a14.188,14.188,0,0,1-6.408,4.319c-.035,0-.143,0-.143-.108a6.775,6.775,0,0,1,.72-.684c2.555-2.016,5.363-5.363,5.363-6.047a10.492,10.492,0,0,0-.792-1.548,17.492,17.492,0,0,1-2.3-5.939c0-.036,0-.36.144-.36s.54.828.864,1.512c.144.324,2.268,4.643,2.988,4.643,1.188,0,2.736-8.351,2.736-8.891,0-.648-.577-.648-.829-.648h-2.447c-.864,0-1.008.036-1.332.828a1.872,1.872,0,0,1-1.728,1.332c-.54,0-1.152-.324-1.152-.756a18.615,18.615,0,0,1,1.152-2.664c.612-1.439,3.2-8.279,3.2-9.07,0-.432-.252-.54-.648-.54-.9,0-2.88.036-3.744.108-.108,0-.647.072-.756.072s-.179-.072-.323-.216l-.685-.828c-.144-.18-.144-.18-.144-.252s.073-.072.108-.072c.217,0,1.369.108,1.62.108,1.368.072,2.952.144,4.284.144a1.279,1.279,0,0,0,1.116-.4c.648-.648.791-.828,1.079-.828.217,0,2.3,1.224,2.3,1.764,0,.36-.468.576-.648.648-.683.324-.792.4-1.079,1.008-.252.5-3.1,8.1-3.1,8.314,0,.36.36.36.72.36Zm18,.144c.792,0,.972,0,1.476-.791.864-1.4,1.044-1.44,1.224-1.44.432,0,2.844,2.123,2.844,2.7,0,.468-.18.468-1.908.468h-6.083c-.468,0-.612,0-.828.216-.288.288-.288.576-.288,3.636v4.931c.18.54.324.756,1.188.756h2.123c.792,0,1.008-.18,1.224-.612.828-1.584.936-1.764,1.368-1.764a12.236,12.236,0,0,1,3.491,2.808c0,.5-.719.5-1.943.5H646.32c-3.167,0-4.211.072-4.571.108-.108,0-.648.072-.756.072s-.18-.072-.324-.216l-.684-.828c-.144-.18-.144-.18-.144-.252,0-.036.036-.072.108-.072.108,0,1.476.144,1.764.144.792,0,.9-.4.9-1.116,0-1.332,0-10.978-.072-11.7-.036-.288-.432-1.44-.432-1.656s.216-.252.4-.252c.36,0,3.348.252,3.348.936a6.675,6.675,0,0,1-.577.828,1.7,1.7,0,0,0-.4,1.332v10.474c0,1.26.325,1.26,1.332,1.26h1.368c.756,0,1.188-.072,1.188-1.08v-15.8c0-2.232,0-2.483-.864-2.483-.144,0-3.2.323-3.528.323-.684,0-2.3.073-2.447.073-.4,0-.792-.073-.792-.217,0-.107.288-.179,1.584-.5,8.53-2.16,8.926-2.268,10.762-3.312a8.73,8.73,0,0,1,1.4-.864,10.615,10.615,0,0,1,2.7,2.52c0,.468-.18.5-5.651,1.44-.324.036-.864.144-1.044.54-.072.215-.072,5.183-.072,5.615a13.55,13.55,0,0,0,.144,2.915c.18.324.683.36.972.36Z" fill="#fff"/><path d="M699.852,230.758a3.832,3.832,0,0,0,2.555-.5c.288-.216,1.224-1.548,1.548-1.548.36,0,3.024,2.16,3.024,2.556,0,.432-.864.432-1.944.432H690.961c-.324,0-.576.144-.576.432,0,.612,3.024,5.363,3.743,5.363.468,0,3.744-2.951,4.248-4.319.252-.612.4-.972.612-.972a15.4,15.4,0,0,1,3.419,2.3v.108c0,.359-.143.359-1.4.5-1.007.108-3.635,1.655-4.967,2.483-.936.576-1.044.612-1.044.828,0,.432,4.644,4.716,10.943,5.687.54.072.648.144.648.288s-.252.288-.612.432a13.148,13.148,0,0,0-2.376,1.512c-.108.072-.612.54-.72.54a21.556,21.556,0,0,1-7.235-4.679c-1.116-1.116-1.223-1.26-1.619-1.26-.216,0-2.808.864-4.212,1.368-1.692.576-10.259,3.347-10.8,3.671-.144.108-.683.684-.827.792a.461.461,0,0,1-.217.036c-.4,0-.5-.18-1.367-1.764-.108-.18-.612-1.008-.684-1.188a1.6,1.6,0,0,1-.18-.539c0-.432.54-.432.935-.432a18.911,18.911,0,0,0,3.924-.252c.612-.108.612-.4.612-1.224,0-1.332-.036-7.055-.036-8.243,0-1.3-.216-1.476-1.26-1.476-.827,0-2.771.108-3.492.144-.107,0-.431.036-.5.036-.144,0-.216-.072-.324-.216l-.72-.828c-.144-.144-.144-.18-.144-.252,0-.036.036-.072.144-.072.72,0,4.571.252,5.435.252,1.224,0,1.3-.36,1.3-1.4,0-7.091,0-7.883-.072-9.251-.036-.612-.36-3.707-.36-3.851,0-.108,0-.288.252-.288a16.528,16.528,0,0,1,2.376.9,4.122,4.122,0,0,0,2.015.468h9.755c1.584,0,1.764,0,2.3-.612,1.008-1.188,1.116-1.332,1.44-1.332.216,0,3.347,1.944,3.347,2.376,0,.54-.72.54-1.908.54H685.31c-1.116,0-1.224.324-1.224,1.331,0,1.584,0,1.98,1.043,1.98h8.315c1.513,0,1.692,0,1.98-.252.252-.216,1.188-1.44,1.476-1.44a7.841,7.841,0,0,1,2.952,2.2c0,.432-.864.432-1.908.432H685.129c-1.043,0-1.043.648-1.043,1.368,0,1.872,0,2.3,1.116,2.3h8.351c1.475,0,1.619,0,1.943-.288.216-.216,1.188-1.4,1.476-1.4a7.84,7.84,0,0,1,2.952,2.2c0,.432-.864.432-1.872.432H685.2c-1.008,0-1.116.467-1.116,1.331,0,1.764,0,2.268,1.08,2.268Zm-15.082.936c-.36,0-.864,0-1.008.684-.036.18-.036,2.2-.036,2.7,0,1.8,0,4.319.072,6.119,0,.5.036.864.576.864.468,0,5.795-1.26,7.091-1.656,1.512-.432,1.692-.5,1.692-.9,0-.072-.073-.18-.613-1.044a55.453,55.453,0,0,1-2.519-5.111c-.648-1.476-.72-1.656-1.44-1.656Z" fill="#fff"/><path d="M722.931,223.739c1.511,0,2.051-.144,6.983-1.548,3.2-.9,11.446-3.239,13.822-3.239,1.3,0,2.915.5,2.915,1.727a1.438,1.438,0,0,1-1.475,1.332c-.468,0-2.52-.4-2.916-.4-4.572,0-9.683,4.212-9.683,13.5,0,6.047,2.268,6.443,4.392,6.443.54,0,3.1-.216,3.419-.216,1.116,0,1.764.468,1.764,1.332,0,1.907-3.96,1.907-4.175,1.907-7.344,0-7.344-6.011-7.344-7.7,0-1.584.036-9.215,5.22-13.858a7.04,7.04,0,0,0,.9-.756c0-.072-.144-.072-.216-.072-2.088,0-9.539,3.168-10.727,3.852a2.748,2.748,0,0,1-1.224.468c-1.8,0-3.527-2.412-3.059-2.916C721.67,223.415,722.714,223.739,722.931,223.739Zm23,7.955a1.46,1.46,0,0,1-1.26,1.476c-.648,0-.972-.684-1.548-2.088a9.422,9.422,0,0,0-1.8-2.808,1.943,1.943,0,0,1-.36-.648c0-.179.4-.215.72-.144C744.744,228.31,745.932,230.542,745.932,231.694Zm4.355-1.728c0,.936-.576,1.332-1.044,1.332-.864,0-1.26-1.044-1.619-1.908a9.328,9.328,0,0,0-2.376-2.879c-.18-.144-.324-.288-.324-.468,0-.216.4-.216.5-.216a3.331,3.331,0,0,1,.9.18C748.451,226.691,750.287,228.238,750.287,229.966Z" fill="#fff"/><path d="M769.442,243.141c0,.791-.359,1.475-1.188,1.475-1.8,0-3.6-3.6-3.6-9.178a27.5,27.5,0,0,1,.936-7.056c1.008-4.427,1.08-4.607,1.08-5.723a5.091,5.091,0,0,0-.828-2.987,7.265,7.265,0,0,1-.684-1.26c0-.216.432-.288.648-.288,2.016,0,3.815,3.6,3.815,4.247,0,.288-1.583,4.716-1.872,5.615a24.085,24.085,0,0,0-1.295,7.236c0,.216,0,2.519.863,2.519.325,0,.361-.144,1.009-2.124.144-.467,1.223-3.6,1.475-3.6.144,0,.144.252.144.324,0,1.152-1.008,6.335-1.008,7.379C768.938,240.261,769.442,242.637,769.442,243.141Zm14.29-2.016a5.935,5.935,0,0,1-5.363,3.419c-2.411,0-4.5-1.476-4.5-3.6,0-.5,0-4.32,7.379-4.428.9,0,.9-.252.9-2.483,0-.216-.108-4.032-.144-5.04a1.2,1.2,0,0,0-.288-.864,11.938,11.938,0,0,0-1.656-.072c-4.067,0-5.327-2.843-5.327-3.2,0-.108.036-.252.18-.252a6.261,6.261,0,0,1,.972.5,10.768,10.768,0,0,0,4.031.72c1.98,0,1.98,0,1.98-2.376,0-2.268,0-3.276-.684-4.1-.144-.181-1.116-.972-1.116-1.224,0-.216.468-.612,1.224-.612.72,0,3.132.5,3.132,1.872,0,.251-.036.324-.4.9a1.561,1.561,0,0,0-.217.756c0,1.08,1.872,1.152,2.088,1.152,1.584.072,2.772.108,2.772,1.62,0,1.692-2.412,2.736-3.743,3.312s-1.332.611-1.332,2.159c0,.792.251,4.86.359,5.832.144,1.331.252,1.583,1.152,1.979,1.764.756,5.544,2.448,5.544,4.572a1.414,1.414,0,0,1-1.3,1.439c-.432,0-.54-.143-1.4-1.223-1.044-1.26-2.916-2.772-3.563-2.448C784.165,239.541,783.84,240.873,783.732,241.125Zm-8.422-.468c0,.972,1.115,1.584,2.376,1.584,2.123,0,4.319-1.728,4.319-2.952,0-.612-.5-.9-2.808-.9C777.146,238.389,775.31,239.613,775.31,240.657Zm8.315-17.026c0,1.368.288,1.368.54,1.368.5,0,1.871-.432,1.871-1.26,0-.648-1.187-1.116-1.692-1.116a.764.764,0,0,0-.431.144A1.091,1.091,0,0,0,783.625,223.631Z" fill="#fff"/><path d="M812.5,219.563a2.938,2.938,0,0,0-.5-1.583,7.128,7.128,0,0,1-.683-1.008c0-.432.755-.756,1.475-.756a2.927,2.927,0,0,1,2.592,1.584c.18.252.54.4,1.62.684.684.18,2.051.576,2.051,1.583,0,1.368-2.015,2.016-4.931,2.88-.324.108-.36.216-.684,1.476-.432,1.8-3.527,13.966-6.839,13.966-.972,0-1.116-.648-1.116-1.008,0-.5.108-.684,1.188-2.231a32.216,32.216,0,0,0,4.967-11.735c0-.324-.252-.36-.792-.4-4.247-.36-4.247-2.88-4.247-2.916,0-.144.036-.431.252-.431.144,0,.252.036.972.467a5.334,5.334,0,0,0,2.771.756,4.482,4.482,0,0,0,1.584-.216A1.7,1.7,0,0,0,812.5,219.563ZM822.865,242.1c-.468,3.131-3.2,3.923-5.075,3.923-3.42,0-5.436-2.376-5.436-4.175,0-2.34,2.556-3.564,5.795-3.564.289,0,1.621.072,1.872.072.324,0,.5-.036.5-.4,0-.54-.144-2.952-.144-3.455,0-3.96.216-5.868,3.24-7.6,2.232-1.3,2.483-1.4,2.483-2.339a3.16,3.16,0,0,0-1.007-1.836c-.324-.288-.468-.432-.468-.576,0-.108.108-.18.252-.18a11.437,11.437,0,0,1,2.123.612,3.864,3.864,0,0,1,2.628,3.672,1.709,1.709,0,0,1-1.692,1.871,2.489,2.489,0,0,1-.828-.144c-1.367-.5-1.511-.575-1.944-.575a4.308,4.308,0,0,0-2.627,1.079,4.058,4.058,0,0,0-.864,2.988c0,.9.36,6.479,1.44,7.235.324.252,2.016.828,2.34,1.008.755.4,2.843,1.548,2.843,2.88,0,.612-.252,1.259-.971,1.259-.361,0-.577-.108-1.117-.575-.971-.864-2.627-1.98-3.131-1.764C822.937,241.593,822.937,241.737,822.865,242.1Zm-5.183-2.052c-.828,0-4.068,0-4.068,1.908,0,.864,1.08,1.943,3.24,1.943,3.491,0,3.995-2.735,3.779-3.311C820.453,240.045,818.51,240.045,817.682,240.045Zm-.972-20.59c0-.252-1.26-.9-1.476-.9-.612,0-.864,1.475-.864,1.583a.386.386,0,0,0,.072.216C814.55,220.463,816.71,219.995,816.71,219.455Z" fill="#fff"/><path d="M849.544,225.107a4.933,4.933,0,0,1-.432,1.44,12.7,12.7,0,0,0-.864,4.643c0,3.636,1.872,6.263,2.988,6.263.612,0,.756-.18,1.835-1.979.217-.36.828-1.224,1.117-1.224.107,0,.179.144.179.288a4.318,4.318,0,0,1-.108.72,10.074,10.074,0,0,0-.467,2.735,4.862,4.862,0,0,0,.215,1.44,9.033,9.033,0,0,1,.288,1.188c0,.72-.755,1.116-1.368,1.116-2.3,0-6.839-3.78-6.839-10.655,0-1.008.5-5.435.5-6.371a10,10,0,0,0-.252-2.088,4.863,4.863,0,0,1-.288-1.224c0-.108.144-.144.216-.144C847.924,221.255,849.544,224.135,849.544,225.107Zm17.566.828a8.96,8.96,0,0,1,3.2,6.875c0,.684-.072,2.376-1.8,2.376-1.764,0-1.764-1.944-1.764-2.412,0-2.988,0-4.5-1.908-6.407-.288-.288-1.728-1.4-1.728-1.62,0-.108.144-.18.324-.18A7.007,7.007,0,0,1,867.11,225.935Z" fill="#fff"/><path d="M893.859,243a4,4,0,1,1-7.99-.036,4,4,0,0,1,7.99.036Zm-6.983-.036a3.019,3.019,0,0,0,3.024,3.023,2.972,2.972,0,0,0,2.988-2.952,3.019,3.019,0,0,0-3.06-3.023A2.913,2.913,0,0,0,886.876,242.961Z" fill="#fff"/><path d="M455.935,282.443c.972,0,1.08-.468,1.08-1.116,0-1.152-.072-2.987-.144-4.1-.036-.216-.288-1.26-.288-1.512a.279.279,0,0,1,.324-.288c.108,0,3.239.5,3.239,1.116,0,.144-.432.648-.432.792-.179.864-.108,10.33-.179,11.842-.036,1.116-.252,4.284-.252,5.112,0,.216,0,.54.323.54.4,0,2.556-.576,2.7-.576.108,0,.252.036.252.144,0,.36-2.123,1.151-2.627,1.331-.757.288-.828.468-1.332,2.16a13.583,13.583,0,0,1-9.539,9.467c-.072,0-.288,0-.288-.18,0-.216.216-.324.4-.4a18,18,0,0,0,3.779-2.916,13.442,13.442,0,0,0,3.384-6.335c0-.4-.144-.432-.288-.432-.432,0-7.7,2.772-7.775,2.808-.144.072-.648.756-.828.756-.684,0-1.728-3.168-1.728-3.348s.144-.18,1.3-.18c.684,0,8.711-1.044,9.467-1.764.432-.431.5-3.239.5-3.815,0-.828-.324-1.08-1.08-1.08h-2.592c-.864,0-3.275,0-4.535.108-.108,0-.648.072-.756.072-.144,0-.216-.072-.324-.216l-.72-.828c-.144-.18-.144-.18-.144-.252s.072-.072.144-.072c.216,0,1.3.108,1.548.108,1.044.072,2.916.144,4.967.144h2.448c.828,0,1.116-.252,1.116-.9v-3.959c0-.684-.036-1.3-1.116-1.3h-2.7c-.863,0-3.276,0-4.535.108-.108,0-.648.072-.756.072-.144,0-.216-.072-.324-.216l-.684-.828c-.108-.108-.18-.18-.18-.252s.108-.072.144-.072c.216,0,1.332.108,1.584.108,1.044.072,2.915.144,4.931.144Zm11.95,8.027c-.719,0-1.115.288-1.115,1.008s0,4.427.072,4.679c.179.648.683.648,1.079.648h4.032a5.214,5.214,0,0,0,1.764-.144c.324-.144,1.475-1.727,1.871-1.727.469,0,2.7,1.871,2.7,2.339s-.756.468-1.908.468h-8.459c-1.044,0-1.115.432-1.115,1.548,0,.9.108,5.327.108,6.335,0,.576,0,1.8-1.872,1.8-1.008,0-1.044-.792-1.044-1.332,0-.468.108-2.915.108-3.455.108-5.292.252-13.895.252-19.114,0-2.628-.036-4.427-.108-6.119,0-.216-.216-1.3-.216-1.548s.072-.432.36-.432a19.469,19.469,0,0,1,2.772.612c.288.108.576.252.576.576,0,.18-.613.756-.684.936-.181.432-.252.612-.252,3.707,0,.54,0,1.188,1.115,1.188h3.492a5.1,5.1,0,0,0,1.764-.144c.324-.144,1.476-1.728,1.907-1.728.469,0,2.7,1.872,2.7,2.34s-.792.468-1.944.468h-7.882c-.4,0-1.081,0-1.152.828-.036.54-.036,2.88-.036,3.6,0,1.26,0,1.728,1.043,1.728h2.016a5.1,5.1,0,0,0,1.764-.144c.324-.144,1.476-1.728,1.908-1.728.468,0,2.7,1.872,2.7,2.34s-.791.468-1.943.468Z" fill="#fff"/><path d="M499.171,303.428c-.216,0-.972,0-1.044.756-.072.936-.144,1.944-1.728,1.944-1.188,0-1.259-.72-1.259-1.332,0-.144.215-7.343.215-8.711,0-3.923,0-12.49-.288-16.126-.036-.324-.215-1.835-.215-2.159,0-.18.035-.288.215-.288.144,0,.325.072,1.692.756a3.316,3.316,0,0,0,1.8.5h11.015c.756,0,1.044,0,1.3-.36.539-.756.683-.936,1.043-.936.5,0,3.132,1.691,3.132,2.232,0,.251-.18.395-.792.935-.468.36-.648.612-.648,2.34,0,3.852.036,4.5.072,7.667.036,2.052.288,11.159.288,13.03a1.811,1.811,0,0,1-1.8,1.98c-.108,0-1.043,0-1.152-1.368-.035-.612-.035-.864-.756-.864Zm10.8-13.066c1.043,0,1.043-.684,1.043-1.152,0-.432-.108-8.819-.18-9a.885.885,0,0,0-.9-.468H498.811a.8.8,0,0,0-.828.54c-.072.288-.072,8.1-.072,8.747,0,.684.036,1.332,1.008,1.332Zm-.036,12.1c.323,0,.971,0,1.044-.756.035-.216.035-8.207.035-9.035,0-.756-.072-1.368-1.043-1.368H498.955c-.936,0-1.044.54-1.044,1.26,0,1.188.108,6.983.108,8.279,0,1.152.108,1.62,1.08,1.62Z" fill="#fff"/><path d="M544.6,281.867c1.044,0,1.044-.648,1.044-1.656,0-.36.036-1.835.036-2.159,0-.54-.144-2.952-.144-3.42,0-.216,0-.36.324-.36.144,0,3.167.684,3.167,1.368,0,.216-.719.936-.756,1.152-.035.144-.107,3.671-.107,4.031a.919.919,0,0,0,1.043,1.044h1.477c.575,0,1.115,0,3.059-4.607.108-.288.5-1.584.576-1.836.072-.216.18-.36.4-.36.144,0,3.384,1.944,3.384,2.448,0,.324-.144.36-1.369.72-1.115.324-3.671,3.131-3.671,3.419,0,.216.288.216.432.216h4.319a2.4,2.4,0,0,0,.972-.18,9.708,9.708,0,0,1,1.044-.54c.5,0,3.024,1.836,3.024,2.988a.577.577,0,0,1-.648.612c-.252,0-1.188-.4-1.4-.4a5.006,5.006,0,0,0-2.484,1.4,5.673,5.673,0,0,1-.719.576c-.109,0-.109-.144-.109-.18,0-.216.865-2.664.865-3.024,0-.324-.217-.324-.5-.324H535.316c-.5,0-.5.072-.54.684-.108,1.836-1.367,3.492-2.2,3.492a1.482,1.482,0,0,1-1.26-1.548,2.652,2.652,0,0,1,.612-1.548,6.954,6.954,0,0,0,1.007-3.456c0-.719,0-.792.216-.792.18,0,.253.18,1.08,1.584.288.54.432.648.9.648ZM555.33,296.3a1.55,1.55,0,0,0,.755-.144c.252-.108,1.081-1.079,1.332-1.079.36,0,2.592,1.223,2.592,1.979,0,.252-.108.324-.756.648-.216.108-.252.432-.252.612,0,4.9,0,5.435-.216,5.9a4.468,4.468,0,0,1-2.987,2.412c-.4,0-.5-.108-1.26-1.224a3.815,3.815,0,0,0-1.872-1.3c-.144-.072-.432-.216-.432-.288,0-.144.18-.144.288-.144a15.408,15.408,0,0,0,2.736-.216c1.223-.215,1.223-.5,1.223-3.383,0-2.556,0-2.844-1.079-2.844h-6.048c-1.08,0-1.08.576-1.08,1.224,0,1.08.037,5.9.037,6.911,0,1.044-.433,2.268-1.8,2.268-1.008,0-1.008-.792-1.008-1.116,0-.036.288-6.875.288-8.171,0-.576-.036-1.116-1.116-1.116H539.06c-1.116,0-1.152.18-1.152,4.032,0,.468.108,2.555.108,2.987a2.215,2.215,0,0,1-2.124,2.412c-.468,0-.756-.252-.756-1.26,0-1.332.216-7.163.216-8.351,0-.216-.144-1.3-.144-1.512,0-.252.108-.323.288-.323.108,0,1.332.5,1.98.791a2.427,2.427,0,0,0,1.188.288h6.083c1.08,0,1.08-.648,1.08-1.3,0-2.987-.5-2.987-1.188-2.987h-2.772c-.431,0-.791,0-1.008.468-.287.54-.5.936-1.8.936-1.044,0-1.044-.684-1.044-.972,0-.684.108-3.708.108-4.356a13.344,13.344,0,0,0-.144-2.123c-.036-.288-.072-.5-.072-.576a.286.286,0,0,1,.288-.324,15.5,15.5,0,0,1,2.015.792,3.763,3.763,0,0,0,1.548.216h10.907a1.4,1.4,0,0,0,1.26-.54c.432-.684.5-.756.9-.756.432,0,2.088.9,2.088,1.728,0,.288-.144.468-.577.971-.144.18-.144.54-.144,1.188,0,.432.036,2.376.036,2.772a1.8,1.8,0,0,1-1.835,1.692c-.5,0-.576-.144-.792-.756-.144-.36-.54-.36-.792-.36h-4.751c-.108,0-.324,0-.324.144,0,.108.036.108.468.324.755.36,1.044.5,1.044.684,0,.216-.792.9-.9,1.08a1.534,1.534,0,0,0-.108.612c0,.863,0,1.439,1.115,1.439Zm-14.975-14.938c-.755,0-.9-.324-2.267-3.1a17.537,17.537,0,0,0-1.26-2.34c-.036-.072-.468-.576-.468-.612,0-.108.144-.144.216-.144.648,0,2.52,1.224,3.1,1.62a4.526,4.526,0,0,1,1.943,2.88C541.615,280.391,541.255,281.363,540.355,281.363Zm1.584,5.688c-1.115,0-1.115.36-1.115,2.339,0,1.188.143,1.692,1.223,1.692H552.63a.959.959,0,0,0,1.008-.5,15.588,15.588,0,0,0,.108-2.556c0-.971-.756-.971-1.08-.971Z" fill="#fff"/><path d="M591.8,280.931c0,.108.073.252.073.4a27.759,27.759,0,0,1,.359,3.888c0,2.411-.54,5.759-3.707,10.546-2.88,4.392-4.715,5.256-6.155,5.256-2.376,0-4.5-3.708-4.5-8.1a12.679,12.679,0,0,1,4-9.179,14.892,14.892,0,0,1,11.482-4.679,11.743,11.743,0,0,1,5.8,1.151,11.284,11.284,0,0,1,6.263,10.475,13.424,13.424,0,0,1-9.071,12.67,22.126,22.126,0,0,1-5.976,1.332c-.144,0-.359-.036-.359-.252,0-.108.072-.144.972-.5,3.743-1.475,11.554-4.571,11.554-13.534,0-1.4-.144-9.971-9.971-9.971C591.834,280.427,591.8,280.715,591.8,280.931Zm-11.7,11.051c0,2.34.936,5.543,3.131,5.543,1.044,0,1.908-.432,4.392-4.175a20.587,20.587,0,0,0,3.527-10.475c0-2.16-.144-2.34-.611-2.34C587.119,280.535,580.1,285.179,580.1,291.982Z" fill="#fff"/><path d="M626.288,293.134c-2.16,4.679-5.94,6.839-6.66,6.839a.168.168,0,0,1-.18-.18,10.193,10.193,0,0,1,1.44-1.908c3.96-5.435,4.356-9.359,4.356-10.546a7.9,7.9,0,0,0-.612-3.1,2.672,2.672,0,0,1-.144-.648c0-.108.036-.18.18-.18.252,0,4.067,1.224,4.067,3.06C628.735,286.583,626.9,291.766,626.288,293.134Zm5.831,3.347c0-.18.18-1.116.216-1.295.108-.684.144-3.528.144-4.428,0-4.391-.432-5.867-.684-6.767a9.361,9.361,0,0,1-.468-1.3c0-.144.144-.18.216-.18.18,0,3.959.648,3.959,2.52,0,.432-.5,2.3-.575,2.7-.144.972-.288,5.328-.288,6.516,0,.468.035,1.188.683,1.188,1.08,0,4.392-2.376,7.847-5.868.612-.612,3.672-3.851,3.816-3.851a.155.155,0,0,1,.144.144c0,.288-2.088,4.751-8.387,10.294a20,20,0,0,0-2.484,2.3c-.612.684-.936.936-1.188.972C634.027,299.613,632.119,297.489,632.119,296.481Z" fill="#fff"/><path d="M686.01,289.642c.216,0,.612-.036.792-.036,2.2,0,2.52,1.332,2.52,1.584,0,1.008-1.476,1.116-2.988,1.116-.828,0-4.427-.072-5.147-.072-4.968,0-13.21.468-14.075.648-.431.072-2.375.648-2.807.648-1.548,0-3.2-2.232-3.2-3.456,0-.216.108-.432.288-.432s1.044.4,1.224.432A19.6,19.6,0,0,0,667,290.4C668.192,290.4,680.755,289.93,686.01,289.642Z" fill="#fff"/><path d="M705.165,282.227a8.791,8.791,0,0,0,2.987.792c1.476,0,12.023-1.044,13.571-1.728,1.116-.5,1.259-.576,1.511-.576.792,0,1.369.5,2.484,1.476,1.62,1.44,1.836,1.836,1.836,2.34,0,.468-.18.648-.828,1.3a5.96,5.96,0,0,0-1.4,2.267c-5.651,11.735-18.214,16.774-18.573,16.774a.24.24,0,0,1-.252-.216c0-.144.107-.216.468-.468,6.263-4.391,11.338-9.142,14.218-14.254a20.31,20.31,0,0,0,2.447-6.083c0-.612-.611-.648-.791-.648-.4,0-10.871,1.764-12.959,2.592a10.4,10.4,0,0,1-1.872.792c-.467,0-.719,0-2.591-1.728a2.282,2.282,0,0,1-1.044-2.016,3.735,3.735,0,0,1,.108-.828A2.4,2.4,0,0,1,705.165,282.227Z" fill="#fff"/><path d="M744.153,277.728c1.3,0,3.888,1.152,3.888,2.3a10.433,10.433,0,0,1-.433,1.512,46.7,46.7,0,0,0-.324,5c0,.792.144.9,1.188,1.151,2.2.5,7.775,3.132,7.775,5.832a1.232,1.232,0,0,1-1.295,1.26c-.9,0-1.009-.144-3.42-3.276-1.008-1.332-2.7-3.024-3.816-3.024-.36,0-.5,0-.5,2.664,0,3.815.037,5.723.181,8.963.035.4.071,1.3.071,1.836,0,.9,0,3.275-1.044,3.275-1.079,0-2.015-2.447-2.015-3.383,0-.144.144-.9.144-1.044a74.5,74.5,0,0,0,.324-8.351c0-10.3,0-11.447-.432-12.6a4,4,0,0,0-1.224-1.655l-.072-.144C743.181,277.728,744.117,277.728,744.153,277.728Z" fill="#fff"/><path d="M775.005,294.394a1.309,1.309,0,0,1-1.224,1.367c-.792,0-1.044-.827-1.3-1.619a12.875,12.875,0,0,0-2.088-3.636c-.18-.252-.251-.36-.251-.468,0-.216.215-.324.467-.324C771.477,289.714,775.005,291.514,775.005,294.394Zm11.122-7.415a2.3,2.3,0,0,1-.072-.324.244.244,0,0,1,.252-.252,8.055,8.055,0,0,1,1.62.9c.576.288,2.016,1.152,2.016,2.2,0,.288-.144.324-.756.684a29.335,29.335,0,0,0-1.836,3.1,31.514,31.514,0,0,1-14.65,12.706.232.232,0,0,1-.216-.216,15.375,15.375,0,0,1,2.016-1.512c7.667-5.867,11.878-12.634,11.878-15.73A3.645,3.645,0,0,0,786.127,286.979Zm-5.615,3.491c0,1.044-.576,1.836-1.224,1.836-.792,0-.972-.9-1.08-1.512a11.232,11.232,0,0,0-1.332-3.419,4.155,4.155,0,0,1-.4-.792c0-.108.181-.216.36-.18A4.56,4.56,0,0,1,780.512,290.47Z" fill="#fff"/><path d="M804.669,282.659a8.481,8.481,0,0,0,2.988.756c1.476,0,12.023-1.008,13.571-1.692,1.115-.5,1.259-.576,1.511-.576.792,0,1.368.5,2.484,1.476,1.62,1.44,1.836,1.836,1.836,2.34,0,.468-.181.648-.829,1.3a5.975,5.975,0,0,0-1.4,2.267c-5.651,11.735-18.214,16.774-18.574,16.774a.24.24,0,0,1-.252-.216c0-.144.108-.216.468-.468,6.263-4.391,11.339-9.142,14.219-14.254a20.353,20.353,0,0,0,2.447-6.083c0-.612-.612-.648-.792-.648-.36,0-10.762,1.728-12.958,2.592a13.058,13.058,0,0,1-1.8.792c-.828,0-3.708-1.8-3.708-3.78,0-.684.108-.792.325-.792C804.273,282.443,804.6,282.659,804.669,282.659Zm28.977-2.412a3.474,3.474,0,1,1-6.947,0,3.42,3.42,0,0,1,3.527-3.419A3.35,3.35,0,0,1,833.646,280.247Zm-5.76.108a2.289,2.289,0,0,0,4.572-.036,2.407,2.407,0,0,0-2.3-2.267A2.316,2.316,0,0,0,827.886,280.355Z" fill="#fff"/><path d="M847.15,287.23c.54.072,2.628.324,3.1.324.72,0,3.851-.215,4.5-.215.684-.037,1.08-.144,1.08-1.008a9.331,9.331,0,0,0-.792-4c-.108-.144-.684-.756-.684-.9,0-.252,1.08-.36,1.26-.36.828,0,3.24,1.692,3.24,2.412,0,.252-.612,1.3-.648,1.512a3.27,3.27,0,0,0-.144,1.3c0,.54.36.756.864.756.935,0,3.2-.145,4.1-.216.792-.072.792-.684.792-1.044a43.272,43.272,0,0,0-.252-5.868c-.108-.324-1.116-1.763-1.116-1.835,0-.144.4-.36.828-.36a8.253,8.253,0,0,1,2.88,1.08c.36.18.9.432.9.864a7.181,7.181,0,0,1-.612,1.3,14.772,14.772,0,0,0-.36,4.032c0,1.152,0,1.512.864,1.512a11.186,11.186,0,0,0,2.448-.4,4.284,4.284,0,0,1,1.8-.468c1.8,0,4.968.612,4.968,2.375a1.063,1.063,0,0,1-1.152,1.044c-.432,0-2.376-.432-2.772-.5-1.224-.18-4.823-.252-4.9-.252-1.08,0-1.08.252-1.188,2.34-.144,3.42-.54,7.559-3.816,11.591a11.618,11.618,0,0,1-3.743,3.239.208.208,0,0,1-.216-.216c0-.036,1.8-2.339,2.088-2.807,2.843-4.212,3.491-8.243,3.491-12.887,0-1.152-.576-1.152-1.08-1.152a23.009,23.009,0,0,0-4.283.36c-.468.252-.468.4-.468,1.944,0,.792.216,4.283.216,4.967,0,1.728-.18,2.376-.684,2.376-.864,0-1.908-2.268-1.908-2.879,0-.36.324-3.816.324-4.176,0-1.728-.216-1.944-.828-1.944a29.268,29.268,0,0,0-4.607.864,8.475,8.475,0,0,1-1.26.4c-.432,0-3.564-1.584-3.564-2.987a.292.292,0,0,1,.252-.324A9.78,9.78,0,0,1,847.15,287.23Z" fill="#fff"/><path d="M899.241,284.459c.828-.18.828-.54.828-1.476,0-1.728-.072-2.34-.36-2.844-.144-.252-1.044-1.259-1.044-1.547,0-.324.864-.36,1.116-.36.576,0,1.008.036,2.556.935.756.432.864.505.864.972a5.635,5.635,0,0,1-.432,1.08,6.021,6.021,0,0,0-.216,1.8c0,.612.144,1.152,1.044,1.152a23.6,23.6,0,0,0,4.247-.36,14.562,14.562,0,0,1,1.728-.72c.36,0,3.131,1.692,3.131,2.376a.772.772,0,0,1-.36.684c-.648.468-.719.54-.864,1.008-1.08,3.059-3.959,11.158-11.626,16.269a15.221,15.221,0,0,1-4.211,2.088c-.108,0-.216-.072-.216-.144s.035-.144.287-.288a33.726,33.726,0,0,0,3.6-2.843,28.262,28.262,0,0,0,9.251-15.73c0-.756-.612-.756-1.116-.756-3.2,0-8.495.324-10.187.54-2.7.36-2.7.648-2.7,1.223,0,.108.144,1.4.18,1.584a48.068,48.068,0,0,1,.5,5.472c0,.684,0,1.835-.829,1.835-.9,0-1.475-1.187-1.619-2.267-.036-.18-.036-2.592-.036-2.88a11.429,11.429,0,0,0-1.98-6.443,2.3,2.3,0,0,1-.432-.828c0-.288.648-.468,1.26-.468a3.567,3.567,0,0,1,1.98.612c.9.576,1.188.72,1.727.72C895.894,284.855,898.485,284.6,899.241,284.459Z" fill="#fff"/><path d="M938.769,289.642a31.106,31.106,0,0,0-3.456.54c-.792.144-4.751,1.008-4.895,1.008-.864,0-1.043-.18-2.843-1.944-.936-.936-1.009-1.044-1.009-1.3a.24.24,0,0,1,.252-.252,11.97,11.97,0,0,1,1.44.36,9.324,9.324,0,0,0,2.736.36,56.384,56.384,0,0,0,8.783-.971c.468-.217.5-.541.576-1.26.108-.936.18-2.664.18-3.6,0-2.088-.18-3.06-.576-3.707a5.721,5.721,0,0,1-.648-1.08c0-.288,1.188-.288,1.548-.288,1.08,0,3.456,1.907,3.456,2.663a7.589,7.589,0,0,1-.612,1.332,30.322,30.322,0,0,0-.613,4.536c0,.648.217,1.008.936,1.008a20.111,20.111,0,0,0,4.1-.72,8.255,8.255,0,0,1,3.023-.864c.973,0,3.528.648,3.528,2.267,0,1.08-1.908,1.08-2.52,1.08-.5,0-2.735-.18-3.2-.18a43.976,43.976,0,0,0-5.759.54c-.4.144-.648.468-.864,1.4-1.656,6.551-2.52,10.007-6.443,13.678a10.155,10.155,0,0,1-2.7,1.908.168.168,0,0,1-.18-.18c0-.108,1.115-1.44,1.8-2.411a25.9,25.9,0,0,0,4.139-8.891,22.379,22.379,0,0,0,.756-4.212C939.705,289.93,939.345,289.642,938.769,289.642Z" fill="#fff"/></g></svg>