<svg xmlns="http://www.w3.org/2000/svg" width="164.997" height="24.134" viewBox="0 0 164.997 24.134"><g transform="translate(-1858.728 -518.201)"><path d="M1862.806,542.242h-4.079V518.963h4.079Z" transform="translate(0 -0.342)" fill="#fff"/><path d="M1871.686,528.653a6.712,6.712,0,0,1,5.4-3.24c2.729,0,4.709,1.77,4.709,4.95v11.879h-3.869V531.413c0-1.89-.811-2.76-2.28-2.76-1.321,0-2.821,1.08-3.84,2.79v10.8h-3.781V525.773h3.661Z" transform="translate(0 -0.327)" fill="#fff"/><path d="M1894.636,521.423a11.255,11.255,0,0,0-1.351-.12c-1.349,0-1.979.66-1.979,2.25v2.22h3.42v2.73h-3.42v13.739h-3.75V528.5h-2.67v-2.73h2.67v-2.46c0-3.27,1.8-4.769,4.92-4.769a19.66,19.66,0,0,1,2.58.18Z" transform="translate(0 -0.343)" fill="#fff"/><path d="M1911.765,533.993c0,5.34-2.97,8.669-7.469,8.669s-7.441-3.24-7.441-8.579,3-8.67,7.47-8.67C1908.766,525.413,1911.765,528.653,1911.765,533.993Zm-11.039.03c0,3.81,1.139,5.91,3.57,5.91s3.6-2.071,3.6-5.91c0-3.78-1.141-5.88-3.571-5.88S1900.726,530.243,1900.726,534.023Z" transform="translate(0 -0.326)" fill="#fff"/><path d="M1924.035,528.953c-1.98,0-3.63,1.29-4.68,4.17v9.119h-3.72V525.773h3.54v4.05c1.17-3.24,2.88-4.41,5.1-4.41Z" transform="translate(0 -0.327)" fill="#fff"/><path d="M1930.995,528.653a6.263,6.263,0,0,1,5.19-3.24,3.9,3.9,0,0,1,4.049,3.21,6.344,6.344,0,0,1,5.22-3.21c2.67,0,4.5,1.77,4.5,4.95v11.879h-3.78V531.413c0-1.86-.81-2.76-2.279-2.76-1.291,0-2.67,1.14-3.451,2.79v10.8h-3.719V531.413c0-1.89-.72-2.76-2.04-2.76-1.29,0-2.73,1.11-3.57,2.79v10.8h-3.72V525.773h3.6Z" transform="translate(0 -0.327)" fill="#fff"/><path d="M1954.245,529.913c.84-2.97,3.24-4.53,6.81-4.53,4.259,0,6.389,1.8,6.389,5.46v6.54a43.4,43.4,0,0,0,.271,4.859h-3.481c-.12-.719-.179-1.2-.269-2.159a6.169,6.169,0,0,1-5.19,2.549c-3.03,0-5.07-1.89-5.07-4.889,0-2.88,1.8-4.74,5.37-5.43a31.6,31.6,0,0,1,4.71-.48v-.93c0-2.07-.87-2.91-2.85-2.91a3.138,3.138,0,0,0-3.15,2.88Zm9.54,4.26a17.121,17.121,0,0,0-3.78.48c-1.77.42-2.7,1.32-2.7,2.789a2.333,2.333,0,0,0,2.64,2.491,4.493,4.493,0,0,0,3.84-2.7Z" transform="translate(0 -0.327)" fill="#fff"/><path d="M1976.685,525.773h3.689v2.76h-3.689v9.03c0,1.649.66,2.37,2.04,2.37a8.716,8.716,0,0,0,1.92-.18l-.151,2.7a19.684,19.684,0,0,1-2.939.18c-3.12,0-4.59-1.35-4.59-4.379v-9.72h-2.46v-2.76h2.46v-4.53l3.72-.84Z" transform="translate(0 -0.338)" fill="#fff"/><path d="M1987.484,522.833h-4.08v-3.87h4.08Zm-.15,19.409h-3.779V525.773h3.779Z" transform="translate(0 -0.342)" fill="#fff"/><path d="M2006.084,533.993c0,5.34-2.97,8.669-7.47,8.669s-7.439-3.24-7.439-8.579,3-8.67,7.47-8.67C2003.084,525.413,2006.084,528.653,2006.084,533.993Zm-11.04.03c0,3.81,1.141,5.91,3.57,5.91s3.6-2.071,3.6-5.91c0-3.78-1.14-5.88-3.569-5.88S1995.044,530.243,1995.044,534.023Z" transform="translate(0 -0.326)" fill="#fff"/><path d="M2013.614,528.653a6.712,6.712,0,0,1,5.4-3.24c2.729,0,4.71,1.77,4.71,4.95v11.879h-3.87V531.413c0-1.89-.81-2.76-2.28-2.76-1.32,0-2.82,1.08-3.84,2.79v10.8h-3.78V525.773h3.66Z" transform="translate(0 -0.327)" fill="#fff"/></g></svg>