<svg xmlns="http://www.w3.org/2000/svg" width="204.111" height="27.973" viewBox="0 0 204.111 27.973"><g transform="translate(-1839.734 -588.579)"><path d="M1843.635,605.693c.269.15.3.3.149.54a4.938,4.938,0,0,0-.779,2.28c0,1.889,1.949,2.82,7.109,2.82a38.1,38.1,0,0,0,8.13-.871c.42-.089.57,0,.63.271a25.074,25.074,0,0,1,.48,2.939c.03.27-.15.391-.51.45a47.612,47.612,0,0,1-8.789.72c-6.93,0-10.321-2.159-10.321-6.059a7.925,7.925,0,0,1,1.59-4.29C1842.1,604.883,1842.854,605.273,1843.635,605.693Zm6.779-11.76c2.19,0,4.32-.119,6.24-.27.3-.03.42.09.45.33a17.532,17.532,0,0,1,.27,2.55c0,.42-.15.6-.51.63a17.474,17.474,0,0,0-7.349,2.97,1.283,1.283,0,0,1-.75.27,1.26,1.26,0,0,1-.63-.18,7.187,7.187,0,0,0-2.1-.96c1.561-1.02,2.88-1.86,3.93-2.49a18.315,18.315,0,0,1-2.19.09,35.893,35.893,0,0,1-5.519-.51c-.271-.06-.391-.18-.391-.54,0-.72.061-1.59.12-2.67A37.86,37.86,0,0,0,1850.414,593.933Zm8.16-3.329c.15-.121.27-.091.45.059a13.808,13.808,0,0,1,2.85,3.21.3.3,0,0,1-.09.48l-1.261.93a.312.312,0,0,1-.509-.09,14.905,14.905,0,0,0-3.03-3.48Zm2.67-1.951c.18-.12.27-.089.45.06a12.545,12.545,0,0,1,2.85,3.09.347.347,0,0,1-.09.54l-1.2.931a.308.308,0,0,1-.51-.091,14.232,14.232,0,0,0-3-3.45Z" transform="translate(0)" fill="#fff"/><path d="M1871.175,600.473c-2.61,0-3.48.06-3.66.06-.3,0-.33-.03-.33-.33v-2.16c0-.3.03-.33.33-.33.18,0,1.05.06,3.66.06h1.95v-3.66c-1.141.27-2.311.54-3.51.75-.87.15-.87.15-1.23-.78a6.912,6.912,0,0,0-.989-1.65,39.377,39.377,0,0,0,9.269-2.31,8.84,8.84,0,0,0,1.529-.78,12.288,12.288,0,0,1,2.01,1.8c.21.239.3.36.3.569,0,.24-.24.36-.57.36a5.8,5.8,0,0,0-1.321.39c-.809.27-1.649.57-2.55.84v4.47h.781c2.58,0,3.45-.06,3.63-.06.3,0,.33.03.33.33v2.16c0,.3-.031.33-.33.33-.18,0-1.05-.06-3.63-.06h-.241a20.017,20.017,0,0,0,4.5,5.49,8.706,8.706,0,0,0-1.2,2.07c-.149.36-.269.54-.42.54-.12,0-.3-.15-.509-.421a20.713,20.713,0,0,1-2.97-4.589c0,7.23.18,12.149.18,12.69,0,.27-.031.3-.361.3h-2.489c-.3,0-.33-.029-.33-.3,0-.541.15-5.4.18-12.24a24.973,24.973,0,0,1-4.47,7.44c-.24.27-.39.42-.54.42s-.27-.15-.39-.511a11.191,11.191,0,0,0-1.2-2.4,23.658,23.658,0,0,0,5.88-8.49Zm11.429-4.26a32.252,32.252,0,0,0-.209-4.47,26.544,26.544,0,0,1,3.12.24c.3.03.42.15.42.331a2.39,2.39,0,0,1-.181.659,15.525,15.525,0,0,0-.119,3.21v8.28c0,2.55.059,3.78.059,3.96,0,.3-.03.33-.33.33h-2.49c-.3,0-.33-.03-.33-.33,0-.18.06-1.41.06-3.96Zm10.11,10.26c0,2.1.06,4.469.06,5.969,0,1.47-.21,2.34-1.08,2.911-.84.569-1.8.75-4.71.779-.929,0-.929,0-1.139-.96a6.314,6.314,0,0,0-.96-2.31,27.287,27.287,0,0,0,3.419.21c.96,0,1.32-.21,1.32-1.17V593.873a25.472,25.472,0,0,0-.24-4.289c1.11.029,2.19.089,3.21.21.3.029.48.18.48.329a1.408,1.408,0,0,1-.18.631c-.18.359-.18,1.02-.18,3.06Z" transform="translate(0)" fill="#fff"/><path d="M1922.594,608.933c0,1.38.06,2.91.06,4.139a2.871,2.871,0,0,1-.99,2.431c-.57.509-1.47.779-3.96.779-.93,0-.9.031-1.109-.87a7.759,7.759,0,0,0-.841-2.28c1.23.091,1.8.121,2.79.121.69,0,.96-.3.96-.99v-4.98h-7.05v3.57c0,2.91.061,4.259.061,4.44,0,.3-.031.329-.33.329H1909.6c-.3,0-.33-.03-.33-.329,0-.211.061-1.53.061-4.44v-3.57h-6.84a18.854,18.854,0,0,1-2.61,8.309c-.24.42-.39.6-.54.6s-.3-.15-.63-.48a7.862,7.862,0,0,0-2.13-1.529c2.19-2.821,3.09-6.39,3.09-13.62v-4.92c0-3.119-.06-4.74-.06-4.919,0-.33.03-.361.36-.361.18,0,1.23.06,4.11.06h14.1c2.909,0,3.929-.06,4.139-.06.3,0,.33.031.33.361,0,.179-.06,1.8-.06,4.919Zm-13.259-4.44v-4.23h-6.54v.33c0,1.44-.03,2.73-.09,3.9Zm0-7.02V593.3h-6.54v4.17Zm3.119-4.17v4.17h7.05V593.3Zm7.05,11.19v-4.23h-7.05v4.23Z" transform="translate(0)" fill="#fff"/><path d="M1931.805,614.872c-2.7,0-3.63.061-3.81.061-.3,0-.33-.031-.33-.33v-2.73c0-.3.03-.33.33-.33.18,0,1.109.06,3.81.06h6.33v-16.92a31.446,31.446,0,0,0-.24-5.01c1.139.03,2.49.091,3.509.21.3.03.54.21.54.391a2.024,2.024,0,0,1-.21.689,10.573,10.573,0,0,0-.21,2.88v4.74h5.88c2.61,0,3.51-.06,3.69-.06.3,0,.33.03.33.33v2.73c0,.3-.029.33-.33.33-.18,0-1.08-.06-3.69-.06h-5.88v9.75h8.19c2.7,0,3.63-.06,3.81-.06.3,0,.33.029.33.33v2.73c0,.3-.03.33-.33.33-.18,0-1.11-.061-3.81-.061Z" transform="translate(0)" fill="#fff"/><path d="M1972.335,595.793c-.69,5.1-1.95,9.78-3.75,12.93-1.29,2.25-2.85,3.449-5.1,3.449-2.64,0-5.31-2.819-5.31-7.709a11.053,11.053,0,0,1,3.39-7.8,13.128,13.128,0,0,1,9.749-3.84c7.2,0,11.43,4.44,11.43,10.41,0,5.58-3.149,9.089-9.239,10.919-.63.181-.9.06-1.29-.54a6.368,6.368,0,0,0-2.1-1.889c5.071-1.2,9.061-3.3,9.061-8.97a6.814,6.814,0,0,0-6.72-6.96Zm-8.61,2.91a8.639,8.639,0,0,0-2.34,5.55c0,2.76,1.11,4.29,2.04,4.29.78,0,1.44-.391,2.25-1.83a34.254,34.254,0,0,0,3.179-10.74A9.035,9.035,0,0,0,1963.725,598.7Z" transform="translate(0)" fill="#fff"/><path d="M1988.175,597.323c.24-.3.33-.3.6-.15a22.313,22.313,0,0,1,4.26,3.06c.12.12.181.18.181.24,0,.09-.061.18-.181.36l-1.349,1.92c-.09.15-.151.21-.241.21-.059,0-.149-.06-.269-.18a23.143,23.143,0,0,0-4.231-3.27c-.149-.09-.21-.15-.21-.21a.664.664,0,0,1,.181-.36Zm.24,14.55a70.774,70.774,0,0,0,2.97-6.93,16.078,16.078,0,0,0,1.62,1.53c.479.36.659.48.659.75a2.3,2.3,0,0,1-.18.69,65.2,65.2,0,0,1-2.91,6.63,5.866,5.866,0,0,0-.479,1.14c-.061.239-.18.389-.39.389a1.147,1.147,0,0,1-.54-.179,17.148,17.148,0,0,1-2.311-1.651A12.546,12.546,0,0,0,1988.415,611.873Zm1.14-22.14c.24-.3.33-.3.57-.149a27.468,27.468,0,0,1,4.35,3.209.361.361,0,0,1,.179.271c0,.089-.059.179-.179.359l-1.38,1.86c-.241.33-.271.3-.51.09a27.527,27.527,0,0,0-4.41-3.45c-.151-.09-.21-.149-.21-.21,0-.09.059-.18.21-.359Zm8.609,25.529c-2.939,0-3.989.06-4.17.06-.3,0-.33-.029-.33-.33v-2.309c0-.33.03-.361.33-.361.181,0,1.231.06,4.17.06h3.811v-6.389h-2.011c-2.819,0-3.779.06-3.959.06-.271,0-.3-.03-.3-.33v-2.28c0-.3.03-.33.3-.33.18,0,1.14.06,3.959.06h2.011v-5.19h-2.611c-2.88,0-3.87.06-4.05.06-.3,0-.33-.03-.33-.33v-2.28c0-.3.031-.33.33-.33.18,0,1.17.06,4.05.06h9.21c2.88,0,3.9-.06,4.079-.06.3,0,.33.03.33.33v2.28c0,.3-.029.33-.33.33-.179,0-1.2-.06-4.079-.06h-3.36v5.19h2.55c2.85,0,3.78-.06,3.96-.06.33,0,.36.03.36.33v2.28c0,.3-.03.33-.36.33-.18,0-1.11-.06-3.96-.06h-2.55v6.389h4.2c2.94,0,3.96-.06,4.14-.06.3,0,.33.031.33.361v2.309c0,.3-.03.33-.33.33-.18,0-1.2-.06-4.14-.06Zm2.97-26.008c.3-.271.36-.271.631-.15a27.742,27.742,0,0,1,5.1,3.119c.15.091.21.15.21.24s-.06.181-.24.36l-1.56,1.741c-.24.269-.33.329-.57.089a23.021,23.021,0,0,0-5.1-3.359c-.24-.121-.27-.211.03-.511Z" transform="translate(0)" fill="#fff"/><path d="M2017.095,614.362c-.361-.27-.361-.389-.151-.629a12.335,12.335,0,0,0,3.031-4.411c.15-.3.21-.239.6-.089l1.83.75c.361.12.42.18.3.479a17.052,17.052,0,0,1-3.269,5.1.361.361,0,0,1-.27.179.654.654,0,0,1-.36-.179Zm3.96-15.869c-2.67,0-3.571.06-3.75.06-.3,0-.33-.03-.33-.33V596.3c0-.3.03-.33.33-.33.179,0,1.08.06,3.75.06h3.389a20.031,20.031,0,0,0-.929-2.19c-2.88,0-3.87.06-4.05.06-.33,0-.361-.03-.361-.36v-1.8c0-.3.031-.33.361-.33.18,0,1.17.06,4.08.06h4.919v-.21a10.75,10.75,0,0,0-.21-2.34c1.08,0,2.28.06,3.33.15.27.031.45.151.45.3a1.4,1.4,0,0,1-.18.569,4.149,4.149,0,0,0-.12,1.32v.21h5.31c2.91,0,3.9-.06,4.08-.06.3,0,.33.03.33.33v1.8c0,.33-.03.36-.33.36-.181,0-1.17-.06-4.11-.06h-.39a2.74,2.74,0,0,0-.27.51c-.18.39-.42,1.08-.72,1.68h3.72c2.669,0,3.57-.06,3.75-.06.33,0,.36.03.36.33v1.92c0,.3-.03.33-.36.33-.18,0-1.081-.06-3.75-.06Zm14.129,1.29c2.91,0,3.93-.06,4.14-.06.3,0,.33.03.33.33,0,.18-.06.84-.06,2.4v3.09c0,1.56.06,2.22.06,2.4,0,.3-.03.331-.33.331-.21,0-1.23-.06-4.14-.06h-9.959c-2.911,0-3.93.06-4.14.06-.3,0-.33-.03-.33-.331,0-.209.059-.839.059-2.4v-3.09c0-1.56-.059-2.19-.059-2.4,0-.3.029-.33.33-.33.21,0,1.229.06,4.14.06Zm-8.07,12.45c0,.629.12.959.481,1.109a19.047,19.047,0,0,0,6.509-.15c.51-.24.75-1.109.78-2.4a8.754,8.754,0,0,0,2.19.9c.75.21.75.21.66,1.02-.27,1.59-.78,2.46-1.53,2.851-1.11.54-2.85.69-5.97.69-2.61,0-4.29-.121-5.13-.511-.66-.36-1.11-.84-1.11-2.46v-1.889a17.105,17.105,0,0,0-.149-2.491c.989.031,2.16.091,3.059.21.39.061.54.151.54.271a.733.733,0,0,1-.15.45,2.511,2.511,0,0,0-.18,1.26Zm-3.21-10.44v1.29h12.57v-1.29Zm12.57,3.09H2023.9v1.35h12.57Zm-9.78-11.04a17.564,17.564,0,0,1,.84,2.19h4.95a16.851,16.851,0,0,0,.84-2.19Zm3.3,14.76c.33-.241.42-.241.691-.06a13.32,13.32,0,0,1,2.579,2.37c.18.239.18.3-.119.54l-1.351,1.139a.706.706,0,0,1-.39.211c-.12,0-.179-.061-.3-.211a17.147,17.147,0,0,0-2.37-2.52c-.33-.21-.3-.179.09-.509Zm9.09.27c.33-.21.39-.181.63.029a24.453,24.453,0,0,1,4.019,4.5c.181.27.151.361-.149.571l-1.86,1.229a.833.833,0,0,1-.39.18c-.09,0-.15-.089-.24-.239a18.919,18.919,0,0,0-3.69-4.8c-.24-.24-.21-.24.15-.481Z" transform="translate(0)" fill="#fff"/></g></svg>