<svg xmlns="http://www.w3.org/2000/svg" width="122.509" height="49.922" viewBox="0 0 122.509 49.922"><g transform="translate(-639.634 -1290.075)"><path d="M667.056,1296.257l-4.366,2.871a8.253,8.253,0,0,0-6.723-3.691,6.8,6.8,0,0,0-4.574,1.726,5.086,5.086,0,0,0-2,3.919,4.418,4.418,0,0,0,1.42,3.261,23,23,0,0,0,5.727,3.419,18.854,18.854,0,0,1,6.432,4.536,9.379,9.379,0,0,1,2.124,6.284,10.4,10.4,0,0,1-3.78,7.924,12.78,12.78,0,0,1-8.847,3.413,14.421,14.421,0,0,1-7.661-2.2,12.619,12.619,0,0,1-5.171-5.889l4.746-2.226q3.105,4.951,7.969,4.951a7.754,7.754,0,0,0,5.141-1.887,5.474,5.474,0,0,0,2.241-4.228,4.4,4.4,0,0,0-1.462-3.276,22.983,22.983,0,0,0-5.743-3.389,18.26,18.26,0,0,1-6.388-4.49,9.331,9.331,0,0,1-2.11-6.226,10.22,10.22,0,0,1,3.472-7.764,11.9,11.9,0,0,1,8.394-3.223A12.708,12.708,0,0,1,667.056,1296.257Z" fill="#73280a"/><path d="M677.192,1294.7h4.977l-1.557,10.489h4.315l-.648,4.629h-4.354l-2.794,18.837h-5.036l2.829-18.837h-3.679l.68-4.629h3.693Z" fill="#73280a"/><path d="M686.685,1317.439a12.23,12.23,0,0,1,3.794-9.024,12.553,12.553,0,0,1,9.155-3.75,12.293,12.293,0,0,1,8.877,3.413,11.334,11.334,0,0,1,3.545,8.511,12.041,12.041,0,0,1-3.692,9.009,12.746,12.746,0,0,1-9.258,3.589,12.482,12.482,0,0,1-8.935-3.3A11.117,11.117,0,0,1,686.685,1317.439Zm13.1-7.793a7.976,7.976,0,0,0-5.771,2.27,7.27,7.27,0,0,0-2.344,5.406,6.6,6.6,0,0,0,1.963,5.009,7.273,7.273,0,0,0,5.244,1.875,8.515,8.515,0,0,0,5.933-2.05,7.433,7.433,0,0,0,.219-10.474A7.129,7.129,0,0,0,699.78,1309.646Z" fill="#73280a"/><path d="M715.308,1328.659l3.486-23.466h5.095l-.732,4.98a19.136,19.136,0,0,1,1.641-2.461,7.911,7.911,0,0,1,2.622-2.49,7.183,7.183,0,0,1,3.18-.615,12.291,12.291,0,0,1,3.78.761l-2.285,4.864a9.557,9.557,0,0,0-3.488-.821,5.4,5.4,0,0,0-4.38,1.831q-1.54,1.832-2.213,6.255l-1.671,11.162Z" fill="#73280a"/><path d="M737.983,1305.193h5.093l4.968,14.722,8.514-14.722h5.585L742.184,1340h-5.753l8.316-14.382Z" fill="#73280a"/></g></svg>