<svg xmlns="http://www.w3.org/2000/svg" width="70.003" height="70" viewBox="0 0 70.003 70"><path d="M604.532,4609.329H575.469A20.493,20.493,0,0,1,555,4588.866V4559.8a20.5,20.5,0,0,1,20.469-20.469h29.063A20.5,20.5,0,0,1,625,4559.8v29.068A20.5,20.5,0,0,1,604.532,4609.329Zm-29.063-63.468a13.952,13.952,0,0,0-13.938,13.937v29.068a13.952,13.952,0,0,0,13.938,13.933h29.063a13.954,13.954,0,0,0,13.941-13.933V4559.8a13.955,13.955,0,0,0-13.941-13.937ZM608.7,4551.3a4.365,4.365,0,1,0,4.363,4.361A4.358,4.358,0,0,0,608.7,4551.3ZM590,4592.417a18.087,18.087,0,1,1,18.09-18.088A18.106,18.106,0,0,1,590,4592.417Zm0-29.654a11.567,11.567,0,1,0,11.566,11.566A11.579,11.579,0,0,0,590,4562.763Z" transform="translate(-555 -4539.329)" fill="#fff"/></svg>