<svg xmlns="http://www.w3.org/2000/svg" width="262.587" height="39.609" viewBox="0 0 262.587 39.609"><g transform="translate(-569.805 -1975.209)"><path d="M575.283,1976.82h5.033l-5.477,37.325H569.8Z" fill="#73280a"/><path d="M583.252,2014.145l3.428-23.467h4.974l-.549,4.16a22.42,22.42,0,0,1,4.291-3.574,8.172,8.172,0,0,1,4.292-1.172,6.186,6.186,0,0,1,4.569,2.109,6.726,6.726,0,0,1,2.021,4.776,7.088,7.088,0,0,1-.058,1.025l-2.465,16.143h-4.917l2.226-14.942a5.441,5.441,0,0,0,.059-.967,4.072,4.072,0,0,0-1.043-2.9,3.586,3.586,0,0,0-2.746-1.113q-2.7,0-4.846,2.811a16.061,16.061,0,0,0-2.849,7.438l-1.413,9.673Z" fill="#73280a"/><path d="M628.867,1976.059l-1.464,4.775a12.389,12.389,0,0,0-3.221-.645q-1.9,0-2.284,2.4l-1.232,8.086h5.916l-.791,4.629H619.96l-2.873,18.838h-4.978l2.838-18.838h-4.625l.7-4.629h4.62l1.329-8.819A7.757,7.757,0,0,1,619.4,1977a7.142,7.142,0,0,1,4.951-1.787A14.1,14.1,0,0,1,628.867,1976.059Z" fill="#73280a"/><path d="M629.834,2002.924a12.23,12.23,0,0,1,3.794-9.024,12.549,12.549,0,0,1,9.155-3.75,12.29,12.29,0,0,1,8.877,3.413,11.334,11.334,0,0,1,3.545,8.511,12.04,12.04,0,0,1-3.691,9.009,12.748,12.748,0,0,1-9.258,3.589,12.485,12.485,0,0,1-8.936-3.3A11.115,11.115,0,0,1,629.834,2002.924Zm13.1-7.793a7.98,7.98,0,0,0-5.772,2.27,7.269,7.269,0,0,0-2.344,5.406,6.6,6.6,0,0,0,1.963,5.009,7.276,7.276,0,0,0,5.244,1.875,8.513,8.513,0,0,0,5.933-2.05,7.432,7.432,0,0,0,.22-10.474A7.131,7.131,0,0,0,642.93,1995.131Z" fill="#73280a"/><path d="M658.457,2014.145l3.486-23.467h5.1l-.732,4.98a19.122,19.122,0,0,1,1.641-2.461,7.921,7.921,0,0,1,2.622-2.49,7.181,7.181,0,0,1,3.18-.615,12.262,12.262,0,0,1,3.78.762l-2.285,4.863a9.553,9.553,0,0,0-3.488-.821,5.4,5.4,0,0,0-4.381,1.832q-1.538,1.83-2.212,6.254l-1.671,11.163Z" fill="#73280a"/><path d="M679.814,2014.145l3.487-23.467h5.035l-.67,4.511a40.916,40.916,0,0,1,4.57-3.793,6.826,6.826,0,0,1,3.9-1.3q4.246,0,5.1,5.215,4.689-5.216,8.412-5.215a4.663,4.663,0,0,1,3.692,1.7,6.439,6.439,0,0,1,1.466,4.365,6.818,6.818,0,0,1-.058,1l-2.588,16.992h-5.035l2.52-17.051a1.226,1.226,0,0,0,.058-.469,2.124,2.124,0,0,0-2.4-2.4,5.853,5.853,0,0,0-4.279,2.329,10.535,10.535,0,0,0-2.58,5.521l-1.785,12.072h-5.036l2.4-16.143a4.1,4.1,0,0,0,.058-.85q0-2.93-2.523-2.929a5.828,5.828,0,0,0-4.358,2.4,10.979,10.979,0,0,0-2.567,5.564l-1.776,11.956Z" fill="#73280a"/><path d="M741.016,1990.678h4.976l-3.428,23.467h-5.035l.374-2.517a10.7,10.7,0,0,1-7.392,3.19,10.873,10.873,0,0,1-8.139-3.618,12,12,0,0,1-3.446-8.569,12.2,12.2,0,0,1,3.614-8.848,11.641,11.641,0,0,1,8.617-3.691q5.91,0,9.1,5.695Zm-1.26,11.234a7.4,7.4,0,0,0-2.271-5.415,7.405,7.405,0,0,0-10.869.206,8.51,8.51,0,0,0-2.3,6,7.93,7.93,0,0,0,2.168,5.722,7.265,7.265,0,0,0,5.479,2.261,7.178,7.178,0,0,0,5.581-2.466A9.087,9.087,0,0,0,739.756,2001.912Z" fill="#73280a"/><path d="M757.744,1980.189h4.976l-1.556,10.489h4.315l-.648,4.629h-4.354l-2.794,18.838h-5.037l2.829-18.838H751.8l.68-4.629h3.693Z" fill="#73280a"/><path d="M770.4,1990.678h4.973l-3.341,23.467h-4.971Zm.967-10.547a3.2,3.2,0,0,1,3.194-3.193,3.124,3.124,0,0,1,2.27.937,3.055,3.055,0,0,1,.952,2.256,3.2,3.2,0,0,1-3.222,3.223,3.052,3.052,0,0,1-2.256-.953A3.118,3.118,0,0,1,771.367,1980.131Z" fill="#73280a"/><path d="M780.391,2002.924a12.23,12.23,0,0,1,3.794-9.024,12.549,12.549,0,0,1,9.155-3.75,12.29,12.29,0,0,1,8.877,3.413,11.334,11.334,0,0,1,3.545,8.511,12.041,12.041,0,0,1-3.692,9.009,12.746,12.746,0,0,1-9.257,3.589,12.483,12.483,0,0,1-8.936-3.3A11.112,11.112,0,0,1,780.391,2002.924Zm13.1-7.793a7.976,7.976,0,0,0-5.771,2.27,7.269,7.269,0,0,0-2.344,5.406,6.6,6.6,0,0,0,1.963,5.009,7.276,7.276,0,0,0,5.244,1.875,8.513,8.513,0,0,0,5.933-2.05,7.433,7.433,0,0,0,.219-10.474A7.13,7.13,0,0,0,793.486,1995.131Z" fill="#73280a"/><path d="M809.365,2014.145l3.428-23.467h4.974l-.548,4.16a22.359,22.359,0,0,1,4.291-3.574,8.171,8.171,0,0,1,4.291-1.172,6.189,6.189,0,0,1,4.57,2.109,6.726,6.726,0,0,1,2.021,4.776,7.065,7.065,0,0,1-.059,1.025l-2.465,16.143h-4.917l2.227-14.942a5.561,5.561,0,0,0,.058-.967,4.067,4.067,0,0,0-1.043-2.9,3.584,3.584,0,0,0-2.746-1.113q-2.7,0-4.846,2.811a16.072,16.072,0,0,0-2.849,7.438l-1.413,9.673Z" fill="#73280a"/></g></svg>