<svg xmlns="http://www.w3.org/2000/svg" width="60.002" height="60" viewBox="0 0 60.002 60"><path d="M1623.456,300h-24.911A17.566,17.566,0,0,1,1581,282.46V257.545A17.567,17.567,0,0,1,1598.545,240h24.911A17.571,17.571,0,0,1,1641,257.545V282.46A17.569,17.569,0,0,1,1623.456,300Zm-24.911-54.4a11.959,11.959,0,0,0-11.947,11.947V282.46a11.959,11.959,0,0,0,11.947,11.943h24.911a11.962,11.962,0,0,0,11.95-11.943V257.545a11.962,11.962,0,0,0-11.95-11.947Zm28.485,4.664a3.742,3.742,0,1,0,3.74,3.739A3.735,3.735,0,0,0,1627.03,250.262ZM1611,285.5a15.5,15.5,0,1,1,15.505-15.5A15.52,15.52,0,0,1,1611,285.5Zm0-25.418a9.915,9.915,0,1,0,9.914,9.914A9.925,9.925,0,0,0,1611,260.086Z" transform="translate(-1581 -240)" fill="#b50000"/></svg>