<svg xmlns="http://www.w3.org/2000/svg" width="59.998" height="60" viewBox="0 0 59.998 60"><path d="M1721,250v40a10.365,10.365,0,0,1-10,10h-40a10.364,10.364,0,0,1-10-10V250a10.364,10.364,0,0,1,10-10h40A10.365,10.365,0,0,1,1721,250Zm-10.9,20.475a5.448,5.448,0,0,0,2.449-1.4c.141-.158.212-.273,0-.241a15.174,15.174,0,0,1-2.4.025,7.483,7.483,0,0,1-1.964-.4c-.215-.081-.324-.216-.136-.216a7.418,7.418,0,0,0,1.992-.321,4.81,4.81,0,0,0,2.381-1.73c.2-.244.1-.331-.059-.22a5.238,5.238,0,0,1-1.332.362,14.248,14.248,0,0,1-2.867-.044c-.933-.142-.9-.475-.947-.71a9.028,9.028,0,0,0-2.585-4.95,8.061,8.061,0,0,0-6.454-2.746c-.136,0-.192-.107.052-.188a25.91,25.91,0,0,0,2.526-.753c.872-.328,1.563-1.293.271-1.241a11.419,11.419,0,0,0-2.422.54,6.9,6.9,0,0,0,1-.966c.049-.109.049-.244-.056-.244a7.092,7.092,0,0,0-1.586.458,11.121,11.121,0,0,0-1.4.782s.322-.539.43-.782-.125-.143-.323-.026a16.43,16.43,0,0,0-3.685,4.144,33.827,33.827,0,0,0-2.8,6.332s-1.8-2.325-6.453-4.425c-3.8-1.711-8.015-3.251-8.015-3.251s-.439,3.231,3.71,5.457a13.232,13.232,0,0,0-2.637.326s.221,3.188,4.684,4.331a4.2,4.2,0,0,0-2.827,1.211c.728,1.24,1.7,2.691,5.3,2.714-1.076.353-1.83,1.351-1.588,2.157s1.024,1.534,3.013,1.534a10.867,10.867,0,0,1-5.3,3.041c-3.284.56-6.567.967-10.762-2.665a21.118,21.118,0,0,0,20.5,8.362c10.276-1.453,15.872-7.369,17.756-13.9A25.477,25.477,0,0,0,1710.1,270.475Z" transform="translate(-1661.002 -240)" fill="#b50000"/></svg>