<svg xmlns="http://www.w3.org/2000/svg" width="69.997" height="70" viewBox="0 0 69.997 70"><path d="M735,4551v46.668a12.092,12.092,0,0,1-11.671,11.666H676.667A12.09,12.09,0,0,1,665,4597.663V4551a12.09,12.09,0,0,1,11.664-11.666h46.662A12.093,12.093,0,0,1,735,4551Zm-12.711,23.888a6.345,6.345,0,0,0,2.857-1.635c.165-.184.248-.319,0-.281a17.69,17.69,0,0,1-2.8.029,8.76,8.76,0,0,1-2.291-.468c-.25-.094-.377-.252-.158-.252a8.61,8.61,0,0,0,2.324-.375,5.607,5.607,0,0,0,2.778-2.018c.234-.284.117-.386-.069-.257a6.066,6.066,0,0,1-1.554.423,16.593,16.593,0,0,1-3.344-.051c-1.089-.166-1.051-.555-1.1-.828a10.552,10.552,0,0,0-3.016-5.776,9.408,9.408,0,0,0-7.53-3.2c-.159,0-.224-.125.06-.219s1.54-.349,2.948-.879c1.017-.383,1.823-1.509.316-1.448a13.428,13.428,0,0,0-2.827.63,7.912,7.912,0,0,0,1.167-1.127c.058-.127.058-.285-.064-.285a8.282,8.282,0,0,0-1.851.534,13.119,13.119,0,0,0-1.635.913s.376-.629.5-.913-.146-.167-.377-.03a19.187,19.187,0,0,0-4.3,4.834,39.511,39.511,0,0,0-3.27,7.388s-2.1-2.713-7.529-5.162c-4.438-2-9.351-3.793-9.351-3.793s-.511,3.769,4.329,6.366a15.49,15.49,0,0,0-3.076.38s.257,3.72,5.464,5.054a4.894,4.894,0,0,0-3.3,1.412c.849,1.447,1.979,3.14,6.183,3.166-1.255.413-2.134,1.577-1.853,2.517s1.2,1.79,3.515,1.79a12.67,12.67,0,0,1-6.181,3.547c-3.83.654-7.66,1.129-12.555-3.108a24.642,24.642,0,0,0,23.918,9.756c11.988-1.7,18.518-8.6,20.715-16.221A29.543,29.543,0,0,0,722.289,4574.883Z" transform="translate(-665.003 -4539.329)" fill="#fff"/></svg>