<svg xmlns="http://www.w3.org/2000/svg" width="147.972" height="40.606" viewBox="0 0 147.972 40.606"><g transform="translate(-1867.099 -307.039)"><path d="M1881.059,307.332l9.087,28.484,16.643-28.542,3.376,38.876h-4.881l-1.815-23.267-14.676,24.762-8.124-25.3-8.278,23.8H1867.1Z" fill="#fff"/><path d="M1919.921,308.826H1937.5l-.792,4.981h-12.5l-1.426,9.316h12.547l-.733,4.981h-12.485l-1.9,12.949h12.422l-.674,5.1h-17.637Z" fill="#fff"/><path d="M1947.87,307.039l21.466,28.331,4.03-26.544h4.856l-5.625,38.76-21.538-28.328-3.928,26.892h-4.974Z" fill="#fff"/><path d="M1986.806,308.826h5.031l-3.734,25.515a9.578,9.578,0,0,0-.059,1.26,6.359,6.359,0,0,0,2.1,5.056,8.552,8.552,0,0,0,5.822,1.831,10.636,10.636,0,0,0,7.01-2.255,9.757,9.757,0,0,0,3.343-6.329l3.662-25.078h5.092l-4.052,26.336a13.769,13.769,0,0,1-4.861,8.952,15.292,15.292,0,0,1-10.043,3.3q-6,0-9.517-3.149a10.822,10.822,0,0,1-3.513-8.482,16.085,16.085,0,0,1,.176-2.168Z" fill="#fff"/></g></svg>