<svg xmlns="http://www.w3.org/2000/svg" width="74.969" height="29.459" viewBox="0 0 74.969 29.459"><g transform="translate(-1903.755 -445.898)"><path d="M1916.654,453.443c-.6-2.52-1.979-3.81-4.139-3.81-2.46,0-3.869,1.17-3.869,3.03,0,2.04.9,2.97,4.259,3.9l1.23.36c5.309,1.44,6.809,3.45,6.809,6.87,0,4.08-2.819,6.9-8.4,6.9-4.53,0-7.68-1.98-8.79-6.029l3.87-1.23c.6,2.7,2.37,4.2,4.83,4.2,3.06,0,4.44-1.319,4.44-3.329s-.72-2.94-4.53-4.02l-1.2-.36c-4.95-1.47-6.54-3.42-6.54-6.99,0-3.51,2.76-6.36,7.77-6.36,4.08,0,6.959,1.92,8.19,5.79Z" transform="translate(0 -0.675)" fill="#fff"/><path d="M1929.345,453.773h3.69v2.76h-3.69v9.03c0,1.649.66,2.37,2.04,2.37a8.7,8.7,0,0,0,1.92-.18l-.15,2.7a19.7,19.7,0,0,1-2.94.18c-3.12,0-4.59-1.35-4.59-4.379v-9.72h-2.46v-2.76h2.46v-4.53l3.72-.84Z" transform="translate(0 -0.675)" fill="#fff"/><path d="M1950.164,461.993c0,5.34-2.97,8.669-7.469,8.669s-7.44-3.24-7.44-8.579,3-8.67,7.47-8.67C1947.165,453.413,1950.164,456.653,1950.164,461.993Zm-11.039.03c0,3.81,1.14,5.91,3.57,5.91s3.6-2.071,3.6-5.91c0-3.78-1.141-5.88-3.57-5.88S1939.125,458.243,1939.125,462.023Z" transform="translate(0 -0.675)" fill="#fff"/><path d="M1962.435,456.953c-1.981,0-3.63,1.29-4.68,4.17v9.119h-3.721V453.773h3.54v4.05c1.17-3.24,2.88-4.41,5.1-4.41Z" transform="translate(0 -0.675)" fill="#fff"/><path d="M1972.935,470.842c-1.29,3.78-3.271,5.19-6.63,5.19a12.809,12.809,0,0,1-2.04-.15l-.151-2.88a11.059,11.059,0,0,0,2.1.21c1.529,0,2.55-.81,3.119-2.55l.24-.72-5.58-16.169h3.99l1.951,6.9c.54,1.89.9,3.479,1.379,5.4h.3c.51-1.859.93-3.539,1.47-5.459l1.89-6.84h3.75Z" transform="translate(0 -0.675)" fill="#fff"/></g></svg>