<svg xmlns="http://www.w3.org/2000/svg" width="19.286" height="240" viewBox="0 0 19.286 240"><g transform="translate(-699.5 -780)"><path d="M705.538,783.888a3.225,3.225,0,0,1,.44-1.752,2.724,2.724,0,0,1,1.232-1.048,5.551,5.551,0,0,1,1.848-.432l.32,1.072a6.99,6.99,0,0,0-1.448.288,2.149,2.149,0,0,0-1.024.656,1.857,1.857,0,0,0-.376,1.232,1.893,1.893,0,0,0,.448,1.344,1.865,1.865,0,0,0,1.424.48,2.6,2.6,0,0,0,1.48-.424,7.884,7.884,0,0,0,1.32-1.16l2.192-2.288a4.107,4.107,0,0,1,1.224-.9,3.3,3.3,0,0,1,1.384-.288,2.631,2.631,0,0,1,2.064.8,3.059,3.059,0,0,1,.72,2.128,4.049,4.049,0,0,1-.176,1.24,2.306,2.306,0,0,1-.568.944,2.72,2.72,0,0,1-1.016.616,6.2,6.2,0,0,1-1.52.3l-.272-1.04a5.768,5.768,0,0,0,1.4-.264,1.749,1.749,0,0,0,.888-.624,1.987,1.987,0,0,0,.3-1.176,2.008,2.008,0,0,0-.416-1.312,1.571,1.571,0,0,0-1.3-.512,2.247,2.247,0,0,0-.96.2,3.276,3.276,0,0,0-.928.712l-2.16,2.288a8.255,8.255,0,0,1-1.6,1.328,3.621,3.621,0,0,1-1.984.56,3.246,3.246,0,0,1-1.632-.376,2.394,2.394,0,0,1-.984-1.048A3.49,3.49,0,0,1,705.538,783.888Z" fill="#fff"/><path d="M705.538,793.1a3.274,3.274,0,0,1,.544-2.024,2.772,2.772,0,0,1,1.464-.984,7.187,7.187,0,0,1,2.04-.272h5.152a7.2,7.2,0,0,1,2.112.28,2.639,2.639,0,0,1,1.424,1,3.4,3.4,0,0,1,.512,2,3.242,3.242,0,0,1-.448,1.832,2.469,2.469,0,0,1-1.272.952,5.955,5.955,0,0,1-1.96.288h-.784v-1.152h.752a6.738,6.738,0,0,0,1.456-.136,1.624,1.624,0,0,0,.944-.552,1.927,1.927,0,0,0,.336-1.232,2.022,2.022,0,0,0-.36-1.3,1.78,1.78,0,0,0-1.016-.592,6.741,6.741,0,0,0-1.52-.152h-5.52a5.879,5.879,0,0,0-1.6.184,1.7,1.7,0,0,0-.96.632,2.086,2.086,0,0,0-.32,1.232,1.862,1.862,0,0,0,.352,1.232,1.72,1.72,0,0,0,.984.552,7.081,7.081,0,0,0,1.48.136h.848v1.152h-.768a7.016,7.016,0,0,1-2.016-.264,2.547,2.547,0,0,1-1.368-.928A3.126,3.126,0,0,1,705.538,793.1Z" fill="#fff"/><path d="M705.7,799.68h12.96v2.928a3.92,3.92,0,0,1-.392,1.912,2.244,2.244,0,0,1-1.136,1,4.658,4.658,0,0,1-1.768.3,5.577,5.577,0,0,1-1.36-.16,2.616,2.616,0,0,1-1.088-.544,1.873,1.873,0,0,1-.592-1.088l-6.624,1.984v-1.184l6.368-1.9V800.9H705.7Zm7.264,1.216v1.648a2.449,2.449,0,0,0,.272,1.264,1.5,1.5,0,0,0,.8.64,3.931,3.931,0,0,0,1.328.192,3.135,3.135,0,0,0,1.792-.416,1.9,1.9,0,0,0,.592-1.648V800.9Z" fill="#fff"/><path d="M705.538,812.527a3.48,3.48,0,0,1,.5-2.007,2.658,2.658,0,0,1,1.408-1.024,6.633,6.633,0,0,1,2.072-.3H714.9a6.1,6.1,0,0,1,2.056.312,2.631,2.631,0,0,1,1.352,1.04,3.553,3.553,0,0,1,.48,1.976,3.59,3.59,0,0,1-.48,1.993,2.586,2.586,0,0,1-1.352,1.031,6.241,6.241,0,0,1-2.056.3h-5.392a6.589,6.589,0,0,1-2.064-.295,2.686,2.686,0,0,1-1.4-1.017A3.475,3.475,0,0,1,705.538,812.527Zm.976,0a2.119,2.119,0,0,0,.344,1.312,1.749,1.749,0,0,0,.96.617,5.513,5.513,0,0,0,1.432.168h5.872a5.417,5.417,0,0,0,1.424-.168,1.672,1.672,0,0,0,.936-.617,2.77,2.77,0,0,0,0-2.615,1.643,1.643,0,0,0-.936-.624,5.336,5.336,0,0,0-1.424-.168H709.25a5.43,5.43,0,0,0-1.432.168,1.717,1.717,0,0,0-.96.624A2.124,2.124,0,0,0,706.514,812.527Z" fill="#fff"/><path d="M705.7,819.472h12.96v1.216H706.61v3.68H705.7Z" fill="#fff"/><path d="M705.7,827.184h12.96V828.4H706.61v3.681H705.7Z" fill="#fff"/><line y1="240" transform="translate(700 780)" fill="none" stroke="#fff" stroke-miterlimit="10" stroke-width="1"/></g></svg>